<svg width="46" height="54" viewBox="0 0 46 54" fill="none" xmlns="http://www.w3.org/2000/svg">
<path d="M22.5857 47.8286C24.1449 47.8286 25.4089 46.6389 25.4089 45.1714C25.4089 43.7039 24.1449 42.5143 22.5857 42.5143C21.0265 42.5143 19.7625 43.7039 19.7625 45.1714C19.7625 46.6389 21.0265 47.8286 22.5857 47.8286Z" fill="#00A7D4"/>
<path fill-rule="evenodd" clip-rule="evenodd" d="M0 10.6286C0 4.75857 5.05598 0 11.2929 0H33.8786C40.1154 0 45.1714 4.75857 45.1714 10.6286V42.5143C45.1714 48.3843 40.1154 53.1429 33.8786 53.1429H11.2929C5.05598 53.1429 0 48.3843 0 42.5143V10.6286ZM4.23482 10.6286C4.23482 6.95982 7.39481 3.98571 11.2929 3.98571H33.8786C37.7766 3.98571 40.9366 6.95982 40.9366 10.6286V42.5143C40.9366 46.183 37.7766 49.1571 33.8786 49.1571H11.2929C7.39481 49.1571 4.23482 46.183 4.23482 42.5143V10.6286Z" fill="#00A7D4"/>
</svg>
