<svg width="53" height="50" viewBox="0 0 53 50" fill="none" xmlns="http://www.w3.org/2000/svg">
<path fill-rule="evenodd" clip-rule="evenodd" d="M4.67536 24.182L5.58787 33.1506C5.58182 33.2084 5.57035 33.296 5.54893 33.4088C5.49566 33.6894 5.38169 34.1212 5.13895 34.6362C4.6652 35.6415 3.65549 37.0636 1.42967 38.3104C0.90916 38.602 0.360435 39.1089 0.118093 39.8902C-0.123881 40.6703 0.0399564 41.4003 0.304032 41.9428C0.78531 42.9316 1.76298 43.6815 2.78551 44.2533C4.9354 45.4557 8.58626 46.5821 14.0866 47.2728L17.9382 47.9831L19.6408 48.5769C35.9411 54.2618 53 42.2072 53 24.9898V24.0793C53 10.7784 42.1799 0 28.8377 0C15.4955 0 4.67536 10.7784 4.67536 24.0793V24.182ZM9.65713 33.0031L8.73899 23.9792C8.79314 12.9678 17.7686 4.05393 28.8377 4.05393C39.9403 4.05393 48.9366 13.0219 48.9366 24.0793V24.9898C48.9366 39.4082 34.6471 49.516 20.9817 44.7501L18.9841 44.0534L14.7088 43.2649L14.6499 43.2576C9.59915 42.6277 6.56872 41.6536 4.99659 40.8378C6.98664 39.3893 8.15057 37.7735 8.81619 36.3611C9.22289 35.4981 9.43293 34.7341 9.54131 34.1634C9.59551 33.8779 9.6245 33.6398 9.63993 33.4601C9.64765 33.3702 9.65201 33.2947 9.65442 33.2351C9.65563 33.2052 9.65635 33.1793 9.65677 33.1574L9.65719 33.1277L9.65726 33.1152L9.65728 33.1095L9.65728 33.1043L9.65713 33.0031Z" fill="white"/>
<path d="M29.3959 19.8558C28.4182 18.8803 26.7593 19.22 26.2458 20.5008L25.766 21.6976C25.3492 22.737 24.1668 23.2426 23.125 22.8268C22.0832 22.4111 21.5765 21.2315 21.9932 20.1921L22.473 18.9952C24.07 15.0122 29.2287 13.9558 32.2692 16.9892C35.1599 19.8732 34.3691 24.7351 30.7126 26.5591L29.92 26.9544C29.1234 27.3518 28.6202 28.1641 28.6202 29.0527C28.6202 30.1722 27.7106 31.0797 26.5885 31.0797C25.4664 31.0797 24.5568 30.1722 24.5568 29.0527C24.5568 26.6286 25.9296 24.4126 28.1028 23.3285L28.8954 22.9331C30.0712 22.3466 30.3255 20.7832 29.3959 19.8558Z" fill="white"/>
<path d="M28.6202 34.4584C28.6202 33.3389 27.7106 32.4314 26.5885 32.4314C25.4664 32.4314 24.5568 33.3389 24.5568 34.4584V34.5935C24.5568 35.713 25.4664 36.6205 26.5885 36.6205C27.7106 36.6205 28.6202 35.713 28.6202 34.5935V34.4584Z" fill="white"/>
</svg>
