<svg width="44" height="50" viewBox="0 0 44 50" fill="none" xmlns="http://www.w3.org/2000/svg">
<path fill-rule="evenodd" clip-rule="evenodd" d="M26.963 3.16131C27.679 2.43811 27.679 1.26558 26.963 0.542393C26.2471 -0.180799 25.0863 -0.180797 24.3703 0.542397L18.2592 6.71526C18.1956 6.77944 18.1373 6.84785 18.0843 6.91983C17.8936 7.17852 17.7682 7.48921 17.7327 7.82701C17.7257 7.89237 17.7222 7.95836 17.7222 8.02471C17.7222 8.09298 17.726 8.16085 17.7333 8.22806C17.7683 8.5519 17.886 8.85065 18.0646 9.10231C18.1227 9.18433 18.1877 9.26193 18.2592 9.33417L24.3703 15.507C25.0863 16.2302 26.2471 16.2302 26.963 15.507C27.679 14.7838 27.679 13.6113 26.963 12.8881L23.9816 9.87654H26.889C31.2766 9.87654 34.8335 13.4693 34.8335 17.9012V35.1852C34.8335 35.263 34.8382 35.3396 34.8475 35.4149C31.6774 36.2322 29.3333 39.1359 29.3333 42.5926C29.3333 46.6836 32.6166 50 36.6667 50C40.7168 50 44 46.6836 44 42.5926C44 39.136 41.6561 36.2324 38.4862 35.415C38.4954 35.3397 38.5001 35.263 38.5001 35.1852V17.9012C38.5001 11.4238 33.3017 6.17284 26.889 6.17284H23.9816L26.963 3.16131ZM40.3333 42.5926C40.3333 44.6381 38.6917 46.2963 36.6667 46.2963C34.6416 46.2963 33 44.6381 33 42.5926C33 40.5471 34.6416 38.8889 36.6667 38.8889C38.6917 38.8889 40.3333 40.5471 40.3333 42.5926Z" fill="#00A7D4"/>
<path fill-rule="evenodd" clip-rule="evenodd" d="M9.16667 15.1987C12.3296 14.3764 14.6667 11.4762 14.6667 8.02469C14.6667 3.93369 11.3834 0.617284 7.33333 0.617284C3.28325 0.617284 0 3.93369 0 8.02469C0 11.4762 2.33708 14.3764 5.5 15.1987V35.4185C2.33708 36.2408 0 39.141 0 42.5926C0 46.6836 3.28325 50 7.33333 50C11.3834 50 14.6667 46.6836 14.6667 42.5926C14.6667 39.141 12.3296 36.2408 9.16667 35.4185V15.1987ZM11 8.02469C11 10.0702 9.35838 11.7284 7.33333 11.7284C5.30829 11.7284 3.66667 10.0702 3.66667 8.02469C3.66667 5.97919 5.30829 4.32099 7.33333 4.32099C9.35838 4.32099 11 5.97919 11 8.02469ZM7.33333 46.2963C9.35838 46.2963 11 44.6381 11 42.5926C11 40.5471 9.35838 38.8889 7.33333 38.8889C5.30829 38.8889 3.66667 40.5471 3.66667 42.5926C3.66667 44.6381 5.30829 46.2963 7.33333 46.2963Z" fill="#00A7D4"/>
</svg>
