<svg width="51" height="50" viewBox="0 0 51 50" fill="none" xmlns="http://www.w3.org/2000/svg">
<path d="M9.82928 6.96202C9.07271 8.81761 7.24033 10.1266 5.1 10.1266C2.28335 10.1266 0 7.85967 0 5.06329C0 2.26691 2.28335 0 5.1 0C7.24033 0 9.07271 1.30897 9.82928 3.16456H20.4V0H30.6V3.16456H41.1707C41.9273 1.30897 43.7597 0 45.9 0C48.7166 0 51 2.26691 51 5.06329C51 7.85967 48.7166 10.1266 45.9 10.1266C43.7597 10.1266 41.9273 8.81761 41.1707 6.96202H37.9964C43.9196 10.9447 47.8125 17.6792 47.8125 25.3165V27.8481C47.8125 28.8967 46.9562 29.7468 45.9 29.7468C44.8438 29.7468 43.9875 28.8967 43.9875 27.8481V25.3165C43.9875 16.9359 38.3301 9.86716 30.6 7.6693V10.1266H20.4V7.6693C12.6699 9.86716 7.0125 16.9359 7.0125 25.3165V27.8481C7.0125 28.8967 6.15624 29.7468 5.1 29.7468C4.04376 29.7468 3.1875 28.8967 3.1875 27.8481V25.3165C3.1875 17.6792 7.08039 10.9447 13.0036 6.96202H9.82928Z" fill="#00A7D4"/>
<path fill-rule="evenodd" clip-rule="evenodd" d="M29.1313 16.9704C27.3515 14.4967 23.6484 14.4967 21.8687 16.9704L12.0861 30.5674C11.1253 31.9028 10.9868 33.6561 11.726 35.1239L17.9846 47.5509C18.7405 49.0519 20.2857 50 21.976 50H29.024C30.7143 50 32.2595 49.0519 33.0154 47.5509L39.274 35.1239C40.0132 33.6561 39.8746 31.9028 38.9139 30.5674L29.1313 16.9704ZM27.4125 31.3368V21.1148L35.8014 32.7747C35.9386 32.9654 35.9584 33.2159 35.8528 33.4256L29.5942 45.8527C29.4862 46.0671 29.2655 46.2025 29.024 46.2025H21.976C21.7345 46.2025 21.5138 46.0671 21.4058 45.8527L15.1472 33.4256C15.0416 33.2159 15.0614 32.9654 15.1986 32.7747L23.5875 21.1148V31.3368C21.3591 32.1188 19.7625 34.2287 19.7625 36.7089C19.7625 39.8548 22.3313 42.4051 25.5 42.4051C28.6687 42.4051 31.2375 39.8548 31.2375 36.7089C31.2375 34.2287 29.6409 32.1188 27.4125 31.3368ZM23.5875 36.7089C23.5875 35.6602 24.4438 34.8101 25.5 34.8101C26.5562 34.8101 27.4125 35.6602 27.4125 36.7089C27.4125 37.7575 26.5562 38.6076 25.5 38.6076C24.4438 38.6076 23.5875 37.7575 23.5875 36.7089Z" fill="#00A7D4"/>
</svg>
