<svg width="48" height="54" viewBox="0 0 48 54" fill="none" xmlns="http://www.w3.org/2000/svg">
<path fill-rule="evenodd" clip-rule="evenodd" d="M9.9638 16.4031C13.4019 15.5182 15.9424 12.3972 15.9424 8.68285C15.9424 4.28036 12.3734 0.711426 7.97094 0.711426C3.56844 0.711426 -0.000488281 4.28036 -0.000488281 8.68285C-0.000488281 12.3972 2.53995 15.5182 5.97808 16.4031V38.1626C2.53995 39.0475 -0.000488281 42.1685 -0.000488281 45.8829C-0.000488281 50.2854 3.56844 53.8543 7.97094 53.8543C12.3734 53.8543 15.9424 50.2854 15.9424 45.8829C15.9424 42.1685 13.4019 39.0475 9.9638 38.1626V34.4073C13.5331 27.6409 19.2485 25.8613 25.3208 24.583C25.9102 24.4589 26.5115 24.3383 27.1186 24.2165C29.6128 23.7163 32.2048 23.1965 34.463 22.3362C37.297 21.2566 39.871 19.5564 41.5013 16.4844C45.1147 15.7265 47.8281 12.5215 47.8281 8.68285C47.8281 4.28036 44.2592 0.711426 39.8567 0.711426C35.4542 0.711426 31.8852 4.28036 31.8852 8.68285C31.8852 12.059 33.984 14.9449 36.948 16.107C35.9559 17.2206 34.6543 17.9982 33.0441 18.6116C31.1266 19.3421 28.9597 19.7784 26.5039 20.2729C25.8562 20.4033 25.1883 20.5378 24.4997 20.6827C19.661 21.7014 14.2357 23.1774 9.9638 27.614V16.4031ZM11.9567 8.68285C11.9567 10.8841 10.1722 12.6686 7.97094 12.6686C5.76969 12.6686 3.98523 10.8841 3.98523 8.68285C3.98523 6.48161 5.76969 4.69714 7.97094 4.69714C10.1722 4.69714 11.9567 6.48161 11.9567 8.68285ZM43.8424 8.68285C43.8424 10.8841 42.0579 12.6686 39.8567 12.6686C37.6554 12.6686 35.8709 10.8841 35.8709 8.68285C35.8709 6.48161 37.6554 4.69714 39.8567 4.69714C42.0579 4.69714 43.8424 6.48161 43.8424 8.68285ZM7.97094 49.8686C10.1722 49.8686 11.9567 48.0841 11.9567 45.8829C11.9567 43.6816 10.1722 41.8971 7.97094 41.8971C5.76969 41.8971 3.98523 43.6816 3.98523 45.8829C3.98523 48.0841 5.76969 49.8686 7.97094 49.8686Z" fill="#FF5034"/>
</svg>
