<svg width="64" height="50" viewBox="0 0 64 50" fill="none" xmlns="http://www.w3.org/2000/svg">
<path d="M43.8686 3.37292C44.3935 2.14482 43.8261 0.722563 42.6014 0.196232C41.3766 -0.330099 39.9582 0.238802 39.4333 1.46691L20.1314 46.6271C19.6065 47.8552 20.1739 49.2774 21.3986 49.8038C22.6234 50.3301 24.0418 49.7612 24.5667 48.5331L43.8686 3.37292Z" fill="#FF5034"/>
<path d="M21.1396 10.7551C21.8788 11.8668 21.5792 13.3689 20.4704 14.1101L5.1836 24.329C4.70609 24.6482 4.70609 25.3518 5.1836 25.671L20.4704 35.8899C21.5792 36.6311 21.8788 38.1332 21.1396 39.2449C20.4005 40.3566 18.9025 40.657 17.7937 39.9159L2.50691 29.6969C-0.835635 27.4625 -0.835638 22.5375 2.50691 20.3031L17.7937 10.0841C18.9025 9.34296 20.4005 9.64338 21.1396 10.7551Z" fill="#FF5034"/>
<path d="M42.8604 10.7551C42.1213 11.8668 42.4208 13.3689 43.5296 14.1101L58.8164 24.329C59.2939 24.6482 59.2939 25.3518 58.8164 25.671L43.5296 35.8899C42.4208 36.6311 42.1213 38.1332 42.8604 39.2449C43.5995 40.3566 45.0975 40.657 46.2063 39.9159L61.4931 29.6969C64.8356 27.4625 64.8356 22.5375 61.4931 20.3031L46.2063 10.0841C45.0975 9.34296 43.5995 9.64338 42.8604 10.7551Z" fill="#FF5034"/>
</svg>
