<svg width="53" height="51" viewBox="0 0 53 51" fill="none" xmlns="http://www.w3.org/2000/svg">
<path fill-rule="evenodd" clip-rule="evenodd" d="M4.67584 24.8934L5.58836 33.862C5.5823 33.9198 5.57084 34.0074 5.54942 34.1202C5.49614 34.4008 5.38218 34.8326 5.13944 35.3477C4.66569 36.353 3.65598 37.775 1.43015 39.0219C0.909648 39.3134 0.360923 39.8203 0.118581 40.6016C-0.123393 41.3817 0.0404447 42.1117 0.304521 42.6543C0.785798 43.643 1.76347 44.3929 2.786 44.9648C4.93589 46.1672 8.58675 47.2935 14.0871 47.9842L17.9387 48.6945L19.6413 49.2883C35.9416 54.9733 53.0005 42.9186 53.0005 25.7012V24.7908C53.0005 11.4898 42.1803 0.711426 28.8382 0.711426C15.496 0.711426 4.67584 11.4898 4.67584 24.7908V24.8934ZM9.65762 33.7145L8.73948 24.6906C8.79363 13.6792 17.7691 4.76536 28.8382 4.76536C39.9408 4.76536 48.9371 13.7334 48.9371 24.7908V25.7012C48.9371 40.1196 34.6476 50.2274 20.9822 45.4615L18.9846 44.7648L14.7093 43.9764L14.6504 43.969C9.59964 43.3391 6.56921 42.365 4.99708 41.5492C6.98712 40.1007 8.15106 38.485 8.81668 37.0725C9.22338 36.2095 9.43342 35.4456 9.54179 34.8748C9.596 34.5894 9.62498 34.3512 9.64042 34.1715C9.64814 34.0816 9.6525 34.0062 9.65491 33.9465C9.65612 33.9166 9.65684 33.8907 9.65726 33.8688L9.65767 33.8392L9.65775 33.8266L9.65777 33.821L9.65777 33.8157L9.65762 33.7145Z" fill="#FF5034"/>
<path d="M29.3964 20.5672C28.4187 19.5917 26.7598 19.9314 26.2463 21.2123L25.7664 22.4091C25.3497 23.4485 24.1673 23.954 23.1255 23.5383C22.0837 23.1225 21.577 21.9429 21.9937 20.9035L22.4735 19.7067C24.0705 15.7236 29.2292 14.6672 32.2697 17.7006C35.1604 20.5846 34.3696 25.4465 30.7131 27.2705L29.9205 27.6658C29.1239 28.0632 28.6207 28.8756 28.6207 29.7641C28.6207 30.8836 27.7111 31.7911 26.589 31.7911C25.4669 31.7911 24.5573 30.8836 24.5573 29.7641C24.5573 27.34 25.9301 25.124 28.1033 24.0399L28.8959 23.6446C30.0717 23.058 30.326 21.4946 29.3964 20.5672Z" fill="#FF5034"/>
<path d="M28.6207 35.1698C28.6207 34.0503 27.7111 33.1428 26.589 33.1428C25.4669 33.1428 24.5573 34.0503 24.5573 35.1698V35.3049C24.5573 36.4244 25.4669 37.3319 26.589 37.3319C27.7111 37.3319 28.6207 36.4244 28.6207 35.3049V35.1698Z" fill="#FF5034"/>
</svg>
