<svg width="51" height="51" viewBox="0 0 51 51" fill="none" xmlns="http://www.w3.org/2000/svg">
<path d="M9.82928 7.67345C9.07271 9.52904 7.24033 10.838 5.1 10.838C2.28335 10.838 0 8.57109 0 5.77472C0 2.97834 2.28335 0.711426 5.1 0.711426C7.24033 0.711426 9.07271 2.02039 9.82928 3.87598H20.4V0.711426H30.6V3.87598H41.1707C41.9273 2.02039 43.7597 0.711426 45.9 0.711426C48.7166 0.711426 51 2.97834 51 5.77472C51 8.57109 48.7166 10.838 45.9 10.838C43.7597 10.838 41.9273 9.52904 41.1707 7.67345H37.9964C43.9196 11.6561 47.8125 18.3907 47.8125 26.0279V28.5595C47.8125 29.6082 46.9562 30.4583 45.9 30.4583C44.8438 30.4583 43.9875 29.6082 43.9875 28.5595V26.0279C43.9875 17.6473 38.3301 10.5786 30.6 8.38073V10.838H20.4V8.38073C12.6699 10.5786 7.0125 17.6473 7.0125 26.0279V28.5595C7.0125 29.6082 6.15624 30.4583 5.1 30.4583C4.04376 30.4583 3.1875 29.6082 3.1875 28.5595V26.0279C3.1875 18.3907 7.08039 11.6561 13.0036 7.67345H9.82928Z" fill="#FF5034"/>
<path fill-rule="evenodd" clip-rule="evenodd" d="M29.1313 17.6818C27.3515 15.2081 23.6484 15.2081 21.8687 17.6818L12.0861 31.2789C11.1253 32.6142 10.9868 34.3675 11.726 35.8353L17.9846 48.2624C18.7405 49.7633 20.2857 50.7114 21.976 50.7114H29.024C30.7143 50.7114 32.2595 49.7633 33.0154 48.2624L39.274 35.8353C40.0132 34.3675 39.8746 32.6142 38.9139 31.2789L29.1313 17.6818ZM27.4125 32.0482V21.8262L35.8014 33.4861C35.9386 33.6769 35.9584 33.9273 35.8528 34.137L29.5942 46.5641C29.4862 46.7785 29.2655 46.914 29.024 46.914H21.976C21.7345 46.914 21.5138 46.7785 21.4058 46.5641L15.1472 34.137C15.0416 33.9273 15.0614 33.6769 15.1986 33.4861L23.5875 21.8262V32.0482C21.3591 32.8302 19.7625 34.9401 19.7625 37.4203C19.7625 40.5662 22.3313 43.1165 25.5 43.1165C28.6687 43.1165 31.2375 40.5662 31.2375 37.4203C31.2375 34.9401 29.6409 32.8302 27.4125 32.0482ZM23.5875 37.4203C23.5875 36.3716 24.4438 35.5216 25.5 35.5216C26.5562 35.5216 27.4125 36.3716 27.4125 37.4203C27.4125 38.4689 26.5562 39.319 25.5 39.319C24.4438 39.319 23.5875 38.4689 23.5875 37.4203Z" fill="#FF5034"/>
</svg>
