<svg width="46" height="54" viewBox="0 0 46 54" fill="none" xmlns="http://www.w3.org/2000/svg">
<path d="M22.5857 48.54C24.1449 48.54 25.4089 47.3504 25.4089 45.8829C25.4089 44.4154 24.1449 43.2257 22.5857 43.2257C21.0265 43.2257 19.7625 44.4154 19.7625 45.8829C19.7625 47.3504 21.0265 48.54 22.5857 48.54Z" fill="url(#paint0_linear_3652_1728)"/>
<path fill-rule="evenodd" clip-rule="evenodd" d="M0 11.34C0 5.47 5.05598 0.711426 11.2929 0.711426H33.8786C40.1154 0.711426 45.1714 5.47 45.1714 11.34V43.2257C45.1714 49.0957 40.1154 53.8543 33.8786 53.8543H11.2929C5.05598 53.8543 0 49.0957 0 43.2257V11.34ZM4.23482 11.34C4.23482 7.67125 7.39481 4.69714 11.2929 4.69714H33.8786C37.7766 4.69714 40.9366 7.67125 40.9366 11.34V43.2257C40.9366 46.8945 37.7766 49.8686 33.8786 49.8686H11.2929C7.39481 49.8686 4.23482 46.8945 4.23482 43.2257V11.34Z" fill="url(#paint1_linear_3652_1728)"/>
<defs>
<linearGradient id="paint0_linear_3652_1728" x1="0" y1="27.2829" x2="45.1714" y2="27.2829" gradientUnits="userSpaceOnUse">
<stop stop-color="#00AEFF"/>
<stop offset="1" stop-color="#756EFE"/>
</linearGradient>
<linearGradient id="paint1_linear_3652_1728" x1="0" y1="27.2829" x2="45.1714" y2="27.2829" gradientUnits="userSpaceOnUse">
<stop stop-color="#00AEFF"/>
<stop offset="1" stop-color="#756EFE"/>
</linearGradient>
</defs>
</svg>
