<svg width="30" height="31" viewBox="0 0 30 31" fill="none" xmlns="http://www.w3.org/2000/svg">
<path fill-rule="evenodd" clip-rule="evenodd" d="M16.3803 0.5856C15.2747 0.401154 14.1462 0.401154 13.0406 0.5856L10.8638 0.948737C10.3573 1.03325 9.84454 1.07572 9.33095 1.07572H8.0977C7.28071 1.07572 6.48201 1.31778 5.80224 1.77139L3.16567 3.53079C2.18607 4.18448 1.53102 5.22487 1.36452 6.39147L0.243722 14.2446C0.0638974 15.5045 0.622869 16.7559 1.68086 17.4619C2.11473 17.7514 2.48252 18.1689 2.54341 18.6869L3.183 24.1286C3.6065 27.7318 6.65729 30.4473 10.2818 30.4473H19.8915C23.516 30.4473 26.5668 27.7318 26.9903 24.1286L27.3482 21.0837C27.6205 18.7663 29.5069 16.5545 29.1772 14.2446L28.0564 6.39147C27.8899 5.22487 27.2348 4.18448 26.2552 3.53079L23.6187 1.77139C22.9389 1.31778 22.1402 1.07572 21.3232 1.07572H20.09C19.5764 1.07572 19.0636 1.03325 18.5571 0.948737L16.3803 0.5856ZM7.05431 3.65129C7.3633 3.4451 7.72634 3.33507 8.0977 3.33507C8.53308 3.33507 8.86995 3.71663 8.816 4.14866L8.03212 10.4257C7.78613 12.3955 6.62736 14.1347 4.90421 15.1203L4.03072 15.6199C3.68716 15.8164 3.26217 15.8017 2.93293 15.582C2.59819 15.3586 2.42134 14.9627 2.47823 14.5641L3.59903 6.71099C3.67471 6.18072 3.97246 5.70781 4.41773 5.41068L7.05431 3.65129ZM5.15061 17.5815L7.32787 16.3362C8.20173 15.8364 9.26768 15.8068 10.1679 16.2573C13.0275 17.6885 16.3934 17.6885 19.253 16.2573C20.1532 15.8068 21.2192 15.8364 22.093 16.3362L24.2703 17.5815C24.8711 17.9252 25.3754 18.5317 25.2946 19.2191L24.7486 23.8646C24.4588 26.3299 22.3714 28.1879 19.8915 28.1879C19.3155 28.1879 18.8486 27.721 18.8486 27.1451V24.7989C18.8486 22.5113 16.9959 20.6568 14.7104 20.6568C12.425 20.6568 10.5723 22.5112 10.5723 24.7989V27.8975C10.5723 28.0579 10.4422 28.1879 10.2818 28.1879C7.80188 28.1879 5.7145 26.3299 5.42474 23.8646L4.76789 18.2761C4.73435 17.9908 4.90125 17.7242 5.15061 17.5815ZM25.3902 15.6199L24.5167 15.1202C22.7935 14.1347 21.6348 12.3955 21.3888 10.4257L20.6049 4.14866C20.5509 3.71663 20.8878 3.33507 21.3232 3.33507C21.6946 3.33507 22.0576 3.4451 22.3666 3.65129L25.0032 5.41068C25.4484 5.70781 25.7462 6.18071 25.8219 6.71099L26.9427 14.5641C26.9996 14.9627 26.8227 15.3586 26.488 15.582C26.1587 15.8017 25.7337 15.8164 25.3902 15.6199ZM16.0092 2.81421C17.3145 3.03197 18.3217 4.08139 18.4857 5.39455L19.3351 12.1962C19.4404 13.0389 19.003 13.8564 18.2435 14.2365C16.0194 15.3496 13.4015 15.3496 11.1774 14.2365C10.4179 13.8564 9.98055 13.0389 10.0858 12.1962L10.9352 5.39455C11.0992 4.08139 12.1064 3.03197 13.4117 2.81421C14.2716 2.67075 15.1493 2.67075 16.0092 2.81421ZM14.7104 22.9161C15.7493 22.9161 16.5914 23.7591 16.5914 24.7989V26.3069C16.5914 27.3458 15.7493 28.1879 14.7104 28.1879C13.6716 28.1879 12.8295 27.3458 12.8295 26.3069V24.7989C12.8295 23.7591 13.6716 22.9161 14.7104 22.9161Z" fill="url(#paint0_linear_3652_1921)"/>
<defs>
<linearGradient id="paint0_linear_3652_1921" x1="0.210449" y1="15.4473" x2="29.2104" y2="15.4473" gradientUnits="userSpaceOnUse">
<stop stop-color="#00AEFF"/>
<stop offset="1" stop-color="#756EFE"/>
</linearGradient>
</defs>
</svg>
