<svg width="67" height="71" viewBox="0 0 67 71" fill="none" xmlns="http://www.w3.org/2000/svg">
<path fill-rule="evenodd" clip-rule="evenodd" d="M45.1579 17.5449C45.1579 27.2099 37.3818 35.0449 27.7895 35.0449C18.1972 35.0449 10.4211 27.2099 10.4211 17.5449C10.4211 7.87994 18.1972 0.0449219 27.7895 0.0449219C37.3818 0.0449219 45.1579 7.87994 45.1579 17.5449ZM39.9474 17.5449C39.9474 24.3104 34.5041 29.7949 27.7895 29.7949C21.0749 29.7949 15.6316 24.3104 15.6316 17.5449C15.6316 10.7794 21.0749 5.29492 27.7895 5.29492C34.5041 5.29492 39.9474 10.7794 39.9474 17.5449Z" fill="#363538"/>
<path d="M28.8473 38.5561C30.2093 38.585 31.2632 39.7311 31.2632 41.1037C31.2632 42.6281 29.9733 43.8226 28.4606 43.7999C28.2379 43.7966 28.0141 43.7949 27.7895 43.7949C20.841 43.7949 14.8074 45.4024 10.6939 47.7338C6.41703 50.1577 5.21053 52.6848 5.21053 54.2949C5.21053 55.9051 6.41703 58.4321 10.6939 60.8561C14.8074 63.1875 20.841 64.7949 27.7895 64.7949C34.7379 64.7949 40.7716 63.1875 44.8851 60.8561C45.2837 60.6302 45.6556 60.4034 46.0024 60.1765C46.6007 59.785 47.2899 59.5449 48.0033 59.5449C50.609 59.5449 51.9616 62.3124 49.8611 63.866C44.7821 67.6225 36.7849 70.0449 27.7895 70.0449C12.4418 70.0449 0 62.9934 0 54.2949C0 45.5964 12.4418 38.5449 27.7895 38.5449C28.1437 38.5449 28.4963 38.5487 28.8473 38.5561Z" fill="#363538"/>
<path fill-rule="evenodd" clip-rule="evenodd" d="M50.6316 49.9558C53.952 49.9558 56.6437 47.2437 56.6437 43.8981C56.6437 40.5525 53.952 37.8404 50.6316 37.8404C47.3112 37.8404 44.6194 40.5525 44.6194 43.8981C44.6194 47.2437 47.3112 49.9558 50.6316 49.9558ZM50.6316 44.7058C51.0743 44.7058 51.4332 44.3442 51.4332 43.8981C51.4332 43.452 51.0743 43.0904 50.6316 43.0904C50.1889 43.0904 49.83 43.452 49.83 43.8981C49.83 44.3442 50.1889 44.7058 50.6316 44.7058Z" fill="url(#paint0_linear_3870_26630)"/>
<path fill-rule="evenodd" clip-rule="evenodd" d="M59.8011 56.7473L57.0936 58.3223C55.5983 59.1921 53.6863 58.6759 52.823 57.1693C51.849 55.4696 49.4141 55.4696 48.4402 57.1693C47.5769 58.6759 45.6648 59.1921 44.1695 58.3223L41.4621 56.7473C39.9668 55.8774 39.4544 53.9509 40.3178 52.4443C41.2917 50.7446 40.0742 48.6199 38.1263 48.6199C36.3997 48.6199 35 47.2096 35 45.4699V42.3199C35 40.5802 36.3997 39.1699 38.1263 39.1699C40.0743 39.1699 41.2917 37.0452 40.3177 35.3454C39.4544 33.8388 39.9668 31.9123 41.462 31.0425L44.1695 29.4675C45.6648 28.5976 47.5768 29.1138 48.4401 30.6204C49.4141 32.3202 51.849 32.3202 52.823 30.6205C53.6863 29.1138 55.5984 28.5976 57.0936 29.4675L59.8011 31.0425C61.2964 31.9123 61.8087 33.8388 60.9454 35.3455C59.9715 37.0452 61.1889 39.1699 63.1368 39.1699C64.8635 39.1699 66.2632 40.5802 66.2632 42.3199V45.4699C66.2632 47.2096 64.8635 48.6199 63.1368 48.6199C61.1889 48.6199 59.9714 50.7446 60.9454 52.4443C61.8087 53.9509 61.2964 55.8774 59.8011 56.7473ZM40.9492 43.8949C44.2959 42.5852 46.3381 39.0213 45.7904 35.4461C48.5894 37.7116 52.6737 37.7116 55.4728 35.4462C54.9251 39.0213 56.9672 42.5852 60.314 43.8949C56.9673 45.2045 54.9251 48.7684 55.4728 52.3436C52.6737 50.0781 48.5894 50.0781 45.7904 52.3436C46.3381 48.7685 44.2959 45.2045 40.9492 43.8949Z" fill="url(#paint1_linear_3870_26630)"/>
<defs>
<linearGradient id="paint0_linear_3870_26630" x1="35" y1="43.8949" x2="66.2632" y2="43.8949" gradientUnits="userSpaceOnUse">
<stop stop-color="#00AEFF"/>
<stop offset="1" stop-color="#756EFE"/>
</linearGradient>
<linearGradient id="paint1_linear_3870_26630" x1="35" y1="43.8949" x2="66.2632" y2="43.8949" gradientUnits="userSpaceOnUse">
<stop stop-color="#00AEFF"/>
<stop offset="1" stop-color="#756EFE"/>
</linearGradient>
</defs>
</svg>
