<svg width="35" height="30" viewBox="0 0 35 30" fill="none" xmlns="http://www.w3.org/2000/svg">
<path d="M20.4301 7.9875C20.2862 7.4101 19.7646 7.0085 19.1716 7.01858C18.5785 7.02866 18.0707 7.44777 17.9465 8.02973L17.2558 11.2641C17.039 12.2793 15.6117 12.3365 15.3144 11.3419C15.1642 10.8395 14.7236 10.48 14.2028 10.4349C13.682 10.3898 13.1865 10.6682 12.9528 11.1374L12.7701 11.5041C12.0563 12.9365 10.5936 13.8419 8.99316 13.8419C8.289 13.8419 7.71816 14.4147 7.71816 15.1213C7.71816 15.8279 8.289 16.4007 8.99316 16.4007H12.3932C12.8761 16.4007 13.3176 16.127 13.5336 15.6935C13.6275 15.5049 13.9038 15.5287 13.9642 15.7306L15.4219 20.6066C15.5892 21.1661 16.1128 21.5408 16.6944 21.5174C17.276 21.4939 17.7679 21.0782 17.8899 20.5071L18.9712 15.4432C19.0491 15.0787 19.5661 15.07 19.6562 15.4316C19.7981 16.0012 20.3081 16.4007 20.8932 16.4007H25.9932C26.6973 16.4007 27.2682 15.8279 27.2682 15.1213C27.2682 14.4147 26.6973 13.8419 25.9932 13.8419C23.5813 13.8419 21.4795 12.1994 20.8964 9.85916L20.4301 7.9875Z" fill="url(#paint0_linear_3652_1915)"/>
<path fill-rule="evenodd" clip-rule="evenodd" d="M15.9772 29.2083C16.9241 29.759 18.0622 29.759 19.0092 29.2083C22.8004 27.0034 32.5082 20.7532 34.1676 13.702C35.666 7.33495 31.8631 0.71937 25.4235 0.624299C25.2905 0.622337 25.1557 0.621338 25.0188 0.621338C22.4264 0.621338 20.1121 1.92066 18.7552 2.88128C18.014 3.40609 16.9723 3.40609 16.2311 2.88128C14.8743 1.92066 12.5599 0.621338 9.96756 0.621338C9.83068 0.621338 9.69578 0.622337 9.56285 0.624299C3.1232 0.71937 -0.679638 7.33495 0.818759 13.702C2.47816 20.7532 12.1859 27.0034 15.9772 29.2083ZM31.6858 13.1139C31.0477 15.8255 28.7287 18.7044 25.712 21.3439C22.7774 23.9115 19.5584 25.9314 17.7305 26.9944C17.5744 27.0852 17.4119 27.0852 17.2558 26.9944C15.4279 25.9314 12.2089 23.9115 9.27437 21.3439C6.25767 18.7044 3.93865 15.8255 3.3005 13.1139C2.05614 7.82631 5.27688 3.24667 9.60037 3.18285C9.72065 3.18107 9.84304 3.18016 9.96756 3.18016C11.7716 3.18016 13.5542 4.11766 14.761 4.97208C16.3837 6.12092 18.6027 6.12092 20.2253 4.97208C21.4321 4.11766 23.2148 3.18016 25.0188 3.18016C25.1433 3.18016 25.2657 3.18107 25.386 3.18285C29.7094 3.24667 32.9302 7.8263 31.6858 13.1139Z" fill="url(#paint1_linear_3652_1915)"/>
<defs>
<linearGradient id="paint0_linear_3652_1915" x1="0.493164" y1="15.1213" x2="34.4932" y2="15.1213" gradientUnits="userSpaceOnUse">
<stop stop-color="#00AEFF"/>
<stop offset="1" stop-color="#756EFE"/>
</linearGradient>
<linearGradient id="paint1_linear_3652_1915" x1="0.493164" y1="15.1213" x2="34.4932" y2="15.1213" gradientUnits="userSpaceOnUse">
<stop stop-color="#00AEFF"/>
<stop offset="1" stop-color="#756EFE"/>
</linearGradient>
</defs>
</svg>
