<svg width="68" height="51" viewBox="0 0 68 51" fill="none" xmlns="http://www.w3.org/2000/svg">
<path fill-rule="evenodd" clip-rule="evenodd" d="M57.2819 0.478302C55.6329 0.101864 53.9014 0.453888 52.5314 1.44408L17.821 26.5316C17.6125 26.6823 17.3462 26.729 17.0986 26.6583L9.28448 24.4262C6.69543 23.6867 3.9343 24.8008 2.58779 27.1283L1.07329 29.7462C-0.547144 32.5472 0.414493 36.1288 3.22117 37.746L16.8322 45.5884C18.6553 46.6389 20.9027 46.6343 22.7215 45.5762L39.0852 36.0565C39.4812 35.8261 39.9892 35.9558 40.2256 36.3477L46.9499 47.4943C48.7707 50.5126 52.8303 51.2548 55.605 49.0769L57.3822 47.6819C59.0906 46.3409 59.9164 44.1672 59.5282 42.0329L56.1869 23.662C56.1346 23.3744 56.2365 23.0804 56.4557 22.8865L64.7744 15.5276C65.8136 14.6083 66.4925 13.3509 66.6902 11.979L67.2258 8.26377C67.6607 5.2465 65.7035 2.40084 62.7259 1.7211L57.2819 0.478302ZM55.4817 5.50955C55.6774 5.36809 55.9247 5.3178 56.1603 5.37158L61.6044 6.61437C62.0297 6.71148 62.3093 7.118 62.2472 7.54904L61.7116 11.2643C61.6834 11.4603 61.5864 11.6399 61.438 11.7712L53.1193 19.1301C51.585 20.4873 50.8718 22.5453 51.238 24.5584L54.5792 42.9294C54.6347 43.2343 54.5167 43.5448 54.2727 43.7364L52.4955 45.1314C52.0991 45.4425 51.5191 45.3365 51.259 44.9053L44.5348 33.7587C42.8799 31.0154 39.3241 30.1072 36.5522 31.7198L20.1884 41.2395C19.9286 41.3907 19.6075 41.3914 19.3471 41.2413L5.73608 33.3989C5.33513 33.1678 5.19775 32.6562 5.42924 32.256L6.94374 29.6381C7.1361 29.3056 7.53054 29.1465 7.90041 29.2521L15.7146 31.4842C17.4472 31.9791 19.3117 31.652 20.7713 30.597L55.4817 5.50955Z" fill="url(#paint0_linear_3870_26616)"/>
<defs>
<linearGradient id="paint0_linear_3870_26616" x1="0.286133" y1="25.3308" x2="67.2861" y2="25.3308" gradientUnits="userSpaceOnUse">
<stop stop-color="#00AEFF"/>
<stop offset="1" stop-color="#756EFE"/>
</linearGradient>
</defs>
</svg>
