<svg width="26" height="30" viewBox="0 0 26 30" fill="none" xmlns="http://www.w3.org/2000/svg">
<path d="M9.1183 15.6188C9.1183 14.8229 9.76216 14.1777 10.5564 14.1777C11.3507 14.1777 11.9945 14.8229 11.9945 15.6188C11.9945 16.4147 11.3507 17.06 10.5564 17.06C9.76216 17.06 9.1183 16.4147 9.1183 15.6188Z" fill="url(#paint0_linear_3875_27419)"/>
<path d="M10.5564 18.5011C9.76216 18.5011 9.1183 19.1463 9.1183 19.9422C9.1183 20.7381 9.76216 21.3834 10.5564 21.3834C11.3507 21.3834 11.9945 20.7381 11.9945 19.9422C11.9945 19.1463 11.3507 18.5011 10.5564 18.5011Z" fill="url(#paint1_linear_3875_27419)"/>
<path d="M12.7136 17.4202C12.7136 16.8233 13.1965 16.3394 13.7922 16.3394C14.3879 16.3394 14.8708 16.8233 14.8708 17.4202C14.8708 18.0172 14.3879 18.5011 13.7922 18.5011C13.1965 18.5011 12.7136 18.0172 12.7136 17.4202Z" fill="url(#paint2_linear_3875_27419)"/>
<path fill-rule="evenodd" clip-rule="evenodd" d="M19.1855 0C17.3914 1.71796e-07 16.0018 1.57322 16.2196 3.35778L16.6688 7.0379V8.31602C16.6688 8.64908 16.5759 8.98718 16.3978 9.29604C16.1776 9.67795 15.889 10.1913 15.5723 10.7879C15.3892 11.1329 14.96 11.2622 14.6052 11.0988C13.3724 10.5312 12.0006 10.2146 10.5564 10.2146C5.19522 10.2146 0.849121 14.5698 0.849121 19.9422C0.849121 25.3147 5.19522 29.6699 10.5564 29.6699C10.9757 29.6699 11.3888 29.6432 11.7943 29.5914C13.7397 29.343 15.8474 29.6852 17.7908 29.9485C18.226 30.0074 18.6665 30.0158 19.1036 29.9735L20.3623 29.8518C22.7222 29.6235 24.8653 27.9456 25.2826 25.4601C25.3132 25.278 25.343 25.1018 25.3719 24.9309L25.3735 24.9212C25.6326 23.3897 25.8199 22.2826 25.8459 21.18C25.8758 19.9175 25.6971 18.691 25.2704 16.8193C24.8118 14.8074 23.6696 12.4287 22.7986 10.7879C22.482 10.1913 22.1934 9.67795 21.9731 9.29604C21.795 8.98718 21.7022 8.64908 21.7022 8.31602V7.0379L22.1514 3.35778C22.3692 1.57322 20.9796 -1.71796e-07 19.1855 0ZM18.8259 8.31602C18.8259 8.1707 18.9438 8.05289 19.0891 8.05289H19.2819C19.4272 8.05289 19.545 8.1707 19.545 8.31602C19.545 8.70311 19.6016 9.08259 19.707 9.44513C19.8126 9.80838 19.5638 10.2146 19.1855 10.2146C18.8072 10.2146 18.5584 9.80838 18.664 9.44513C18.7694 9.08259 18.8259 8.70311 18.8259 8.31602ZM20.0101 3.09533L19.7275 5.41133C19.694 5.68527 19.4614 5.89119 19.1855 5.89119C18.9095 5.89119 18.6769 5.68527 18.6435 5.41133L18.3608 3.09533C18.3002 2.59913 18.6866 2.1617 19.1855 2.1617C19.6843 2.1617 20.0707 2.59913 20.0101 3.09533ZM17.1084 12.5124C17.1512 12.4281 17.2373 12.3763 17.3318 12.3763H19.1854C20.4178 12.3763 21.5609 13.06 22.062 14.186C22.5355 15.2502 22.9497 16.3457 23.1674 17.3007C23.5793 19.1074 23.7129 20.1308 23.6894 21.1289C23.6672 22.0664 23.5082 23.0089 23.2401 24.5978L23.1553 25.1014C22.9232 26.4841 21.6914 27.5514 20.155 27.7001L18.8963 27.8218C18.6244 27.8481 18.3504 27.8429 18.0797 27.8062C17.4337 27.7188 17.3397 26.9309 17.7751 26.4458C19.3215 24.7233 20.2637 22.4433 20.2637 19.9422C20.2637 17.1266 19.0691 14.5905 17.1633 12.8153C17.0801 12.7378 17.0569 12.6138 17.1084 12.5124ZM3.0063 19.9422C3.0063 15.7637 6.3866 12.3763 10.5564 12.3763C12.2347 12.3763 13.7823 12.9238 15.0352 13.8506C16.9003 15.2302 18.1065 17.445 18.1065 19.9422C18.1065 22.672 16.6646 25.0652 14.4973 26.3972C13.3509 27.1017 12.0027 27.5082 10.5564 27.5082C6.3866 27.5082 3.0063 24.1208 3.0063 19.9422Z" fill="url(#paint3_linear_3875_27419)"/>
<defs>
<linearGradient id="paint0_linear_3875_27419" x1="0.849121" y1="15" x2="25.8491" y2="15" gradientUnits="userSpaceOnUse">
<stop stop-color="#00AEFF"/>
<stop offset="1" stop-color="#756EFE"/>
</linearGradient>
<linearGradient id="paint1_linear_3875_27419" x1="0.849121" y1="15" x2="25.8491" y2="15" gradientUnits="userSpaceOnUse">
<stop stop-color="#00AEFF"/>
<stop offset="1" stop-color="#756EFE"/>
</linearGradient>
<linearGradient id="paint2_linear_3875_27419" x1="0.849121" y1="15" x2="25.8491" y2="15" gradientUnits="userSpaceOnUse">
<stop stop-color="#00AEFF"/>
<stop offset="1" stop-color="#756EFE"/>
</linearGradient>
<linearGradient id="paint3_linear_3875_27419" x1="0.849121" y1="15" x2="25.8491" y2="15" gradientUnits="userSpaceOnUse">
<stop stop-color="#00AEFF"/>
<stop offset="1" stop-color="#756EFE"/>
</linearGradient>
</defs>
</svg>
