<svg width="31" height="30" viewBox="0 0 31 30" fill="none" xmlns="http://www.w3.org/2000/svg">
<path d="M9.13783 25.5C10.3733 25.5 11.3749 24.4926 11.3749 23.25C11.3749 22.0074 10.3733 21 9.13783 21C7.90231 21 6.90073 22.0074 6.90073 23.25C6.90073 24.4926 7.90231 25.5 9.13783 25.5Z" fill="url(#paint0_linear_3875_27425)"/>
<path d="M24.7975 23.25C24.7975 24.4926 23.7959 25.5 22.5604 25.5C21.3249 25.5 20.3233 24.4926 20.3233 23.25C20.3233 22.0074 21.3249 21 22.5604 21C23.7959 21 24.7975 22.0074 24.7975 23.25Z" fill="url(#paint1_linear_3875_27425)"/>
<path fill-rule="evenodd" clip-rule="evenodd" d="M1.0168 16.6578C1.41259 16.0148 2.42654 15.3672 2.42654 14.6122V6C2.42654 2.68629 5.09742 0 8.39213 0H23.3061C26.6008 0 29.2717 2.68629 29.2717 6V14.6122C29.2717 15.3672 30.2857 16.0148 30.6814 16.6578C31.0066 17.1861 30.8445 17.8794 30.3192 18.2065C29.6677 18.6122 29.2717 19.3254 29.2717 20.0928V24C29.2717 27.3137 26.6008 30 23.3061 30H8.39213C5.09742 30 2.42654 27.3137 2.42654 24V20.0928C2.42654 19.3254 2.0305 18.6122 1.37901 18.2065C0.853771 17.8794 0.691606 17.1861 1.0168 16.6578ZM4.66363 6C4.66363 3.92893 6.33294 2.25 8.39213 2.25H23.3061C25.3653 2.25 27.0346 3.92893 27.0346 6C27.0346 6.04785 26.9894 6.0828 26.9427 6.0723C26.7323 6.02497 26.5135 6 26.2889 6H5.40933C5.18472 6 4.96591 6.02497 4.75549 6.0723C4.70881 6.0828 4.66363 6.04785 4.66363 6ZM4.66363 9V16.5C4.66363 16.9142 4.99749 17.25 5.40933 17.25H26.2889C26.7007 17.25 27.0346 16.9142 27.0346 16.5V9C27.0346 8.58579 26.7007 8.25 26.2889 8.25H5.40933C4.99749 8.25 4.66363 8.58579 4.66363 9ZM27.0346 20.1592C27.0346 19.7776 26.6705 19.5 26.2889 19.5H5.40933C5.02777 19.5 4.66363 19.7776 4.66363 20.1592V24C4.66363 26.0711 6.33294 27.75 8.39213 27.75H23.3061C25.3653 27.75 27.0346 26.0711 27.0346 24V20.1592Z" fill="url(#paint2_linear_3875_27425)"/>
<defs>
<linearGradient id="paint0_linear_3875_27425" x1="0.849121" y1="15" x2="30.8491" y2="15" gradientUnits="userSpaceOnUse">
<stop stop-color="#00AEFF"/>
<stop offset="1" stop-color="#756EFE"/>
</linearGradient>
<linearGradient id="paint1_linear_3875_27425" x1="0.849121" y1="15" x2="30.8491" y2="15" gradientUnits="userSpaceOnUse">
<stop stop-color="#00AEFF"/>
<stop offset="1" stop-color="#756EFE"/>
</linearGradient>
<linearGradient id="paint2_linear_3875_27425" x1="0.849121" y1="15" x2="30.8491" y2="15" gradientUnits="userSpaceOnUse">
<stop stop-color="#00AEFF"/>
<stop offset="1" stop-color="#756EFE"/>
</linearGradient>
</defs>
</svg>
