<svg width="51" height="51" viewBox="0 0 51 51" fill="none" xmlns="http://www.w3.org/2000/svg">
<path d="M9.82879 7.24498C9.07223 9.10057 7.23984 10.4095 5.09951 10.4095C2.28286 10.4095 -0.000488281 8.14263 -0.000488281 5.34625C-0.000488281 2.54987 2.28286 0.282959 5.09951 0.282959C7.23984 0.282959 9.07223 1.59193 9.82879 3.44752H20.3995V0.282959H30.5995V3.44752H41.1702C41.9268 1.59193 43.7592 0.282959 45.8995 0.282959C48.7162 0.282959 50.9995 2.54987 50.9995 5.34625C50.9995 8.14263 48.7162 10.4095 45.8995 10.4095C43.7592 10.4095 41.9268 9.10057 41.1702 7.24498H37.9959C43.9191 11.2277 47.812 17.9622 47.812 25.5994V28.1311C47.812 29.1797 46.9558 30.0298 45.8995 30.0298C44.8433 30.0298 43.987 29.1797 43.987 28.1311V25.5994C43.987 17.2188 38.3296 10.1501 30.5995 7.95226V10.4095H20.3995V7.95226C12.6694 10.1501 7.01201 17.2188 7.01201 25.5994V28.1311C7.01201 29.1797 6.15576 30.0298 5.09951 30.0298C4.04327 30.0298 3.18701 29.1797 3.18701 28.1311V25.5994C3.18701 17.9622 7.0799 11.2277 13.0031 7.24498H9.82879Z" fill="url(#paint0_linear_3870_26608)"/>
<path fill-rule="evenodd" clip-rule="evenodd" d="M29.1308 17.2533C27.3511 14.7796 23.648 14.7796 21.8682 17.2533L12.0856 30.8504C11.1249 32.1858 10.9863 33.939 11.7255 35.4068L17.9841 47.8339C18.74 49.3349 20.2852 50.283 21.9755 50.283H29.0235C30.7138 50.283 32.259 49.3348 33.0149 47.8339L39.2735 35.4068C40.0127 33.939 39.8741 32.1858 38.9134 30.8504L29.1308 17.2533ZM27.412 31.6197V21.3978L35.8009 33.0576C35.9381 33.2484 35.9579 33.4989 35.8523 33.7085L29.5937 46.1356C29.4857 46.35 29.265 46.4855 29.0235 46.4855H21.9755C21.734 46.4855 21.5133 46.35 21.4053 46.1356L15.1467 33.7085C15.0411 33.4989 15.0609 33.2484 15.1982 33.0576L23.587 21.3978V31.6197C21.3586 32.4017 19.762 34.5117 19.762 36.9918C19.762 40.1377 22.3308 42.688 25.4995 42.688C28.6682 42.688 31.237 40.1377 31.237 36.9918C31.237 34.5117 29.6404 32.4017 27.412 31.6197ZM23.587 36.9918C23.587 35.9432 24.4433 35.0931 25.4995 35.0931C26.5558 35.0931 27.412 35.9432 27.412 36.9918C27.412 38.0405 26.5558 38.8906 25.4995 38.8906C24.4433 38.8906 23.587 38.0405 23.587 36.9918Z" fill="url(#paint1_linear_3870_26608)"/>
<defs>
<linearGradient id="paint0_linear_3870_26608" x1="-0.000488281" y1="25.283" x2="50.9995" y2="25.283" gradientUnits="userSpaceOnUse">
<stop stop-color="#00AEFF"/>
<stop offset="1" stop-color="#756EFE"/>
</linearGradient>
<linearGradient id="paint1_linear_3870_26608" x1="-0.000488281" y1="25.283" x2="50.9995" y2="25.283" gradientUnits="userSpaceOnUse">
<stop stop-color="#00AEFF"/>
<stop offset="1" stop-color="#756EFE"/>
</linearGradient>
</defs>
</svg>
