<svg width="166" height="160" viewBox="0 0 166 160" fill="none" xmlns="http://www.w3.org/2000/svg">
<g clip-path="url(#clip0_3585_2682)">
<rect x="46.0532" y="0.378906" width="129.245" height="119" rx="20.4901" transform="rotate(22.4908 46.0532 0.378906)" fill="url(#paint0_linear_3585_2682)"/>
<path d="M59.8207 39.2565C59.8921 38.479 59.9238 37.7792 59.7945 37.1446C59.6522 36.2234 59.384 35.9153 58.1254 35.3942L55.7899 34.4273C55.1002 34.1417 55.0009 34.1759 54.7143 34.8681L52.5264 40.1525L55.3163 41.3076C56.9203 41.9717 57.1705 41.7364 58.1858 40.2615L58.9076 40.5604L56.8852 45.4452L56.1366 45.1353C56.5101 43.4072 56.4712 42.9506 54.9003 42.3002L52.1147 41.1469L50.4414 45.1884C49.5985 47.2242 49.7707 47.4135 51.7923 48.4576L51.5089 49.1423L44.9217 46.415L45.2052 45.7303C47.1125 46.3518 47.3851 46.2802 48.2182 44.268L51.9597 35.2312C52.7959 33.2115 52.6145 33.0084 50.8591 32.0745L51.1425 31.3898L58.5456 34.4549C60.6051 35.3076 61.4646 35.6371 61.8625 35.7742C61.5755 36.534 60.9731 38.2614 60.6099 39.4653L59.8207 39.2565Z" fill="white"/>
<path d="M57.7698 51.7349L58.0532 51.0502C60.0033 51.6228 60.2332 51.6001 61.0445 49.6403L64.8153 40.5329C65.6346 38.5539 65.4874 38.3649 63.7058 37.3976L63.9893 36.7129L70.3422 39.3432L70.0587 40.0278C68.0937 39.449 67.8578 39.4743 67.0384 41.4533L63.2677 50.5608C62.4501 52.5355 62.6052 52.6964 64.4062 53.6805L64.1227 54.3652L57.7698 51.7349Z" fill="white"/>
<path d="M83.2633 49.019C83.3799 48.1322 83.3838 47.215 83.2997 46.7133C83.1702 45.9581 83.0165 45.6999 81.7312 45.1677L79.5733 44.2743L74.9419 55.4604C74.1851 57.2883 74.2824 57.601 76.3894 58.6415L76.106 59.3262L69.2205 56.4754L69.504 55.7908C71.6753 56.5216 71.9523 56.3852 72.7166 54.5391L77.348 43.3529L75.3761 42.5365C74.1025 42.0092 73.671 42.0076 72.9943 42.5106C72.5194 42.8499 72.0591 43.3685 71.4013 44.1103L70.6763 43.8101C71.4227 42.4097 72.1939 40.9492 72.7813 39.7151L73.3406 39.9466C73.459 40.6408 73.7229 40.7325 74.3774 41.0035L83.5288 44.7924C84.1704 45.058 84.426 45.0459 84.9568 44.7561L85.5311 44.9938C85.0874 46.0653 84.4695 47.8302 84.0197 49.2493L83.2633 49.019Z" fill="white"/>
<path d="M103.041 53.6795C101.507 53.2391 100.93 53.2863 100.423 54.3166C100.073 55.0727 99.6342 55.9894 98.7545 58.1141L94.9221 67.3705L93.9704 66.9765L89.109 50.9137L86.7578 56.5925C85.9016 58.6604 85.5463 59.7032 85.3206 60.3905C84.8992 61.5627 85.302 62.1751 86.9172 62.9969L86.6337 63.6816L81.0068 61.3519L81.2903 60.6672C82.7476 61.1351 83.4495 61.019 84.0154 59.9367C84.4013 59.2103 84.8625 58.2264 85.7262 56.1403L88.1359 50.3201C88.4128 49.6515 88.53 49.2382 88.3282 48.5396C88.1336 47.7812 87.6887 47.4489 86.6345 46.8819L86.918 46.1973L90.5644 47.707L95.4563 63.0607L97.6873 57.6723C98.567 55.5475 98.9196 54.5777 99.1539 53.8275C99.5111 52.768 99.156 52.2067 97.3464 51.322L97.6299 50.6373L103.328 52.9966L103.041 53.6795Z" fill="white"/>
<path d="M112.515 70.0409C112.129 70.5905 110.497 72.7611 109.986 73.353L98.6371 68.6543L98.9188 67.9739C101.128 68.689 101.363 68.5618 102.151 66.6589L105.909 57.5825C106.754 55.5414 106.546 55.3157 104.91 54.4528L105.194 53.7681L112.334 56.7242C114.548 57.6411 115.444 57.9857 115.735 58.0785C115.531 58.6369 114.897 60.4404 114.469 61.7415L113.692 61.5553C113.796 60.8465 113.798 60.1267 113.7 59.4174C113.617 58.5534 113.192 58.1931 111.846 57.6357L109.777 56.779C109.028 56.4691 108.951 56.5125 108.665 57.2047L106.571 62.2631L109.077 63.3009C110.728 63.9845 111.009 63.694 111.952 62.232L112.701 62.5419L110.7 67.3743L109.952 67.0643C110.332 65.2625 110.246 64.947 108.644 64.2838L106.16 63.2553L104.302 67.7426C103.634 69.3562 103.978 69.7348 105.169 70.254L107.223 71.1045C108.613 71.6801 108.944 71.5835 109.701 71.1879C110.379 70.8611 111.246 70.1292 111.87 69.5567L112.515 70.0409Z" fill="white"/>
<path d="M125.462 66.3404C125.685 64.6554 125.675 62.8526 123.518 61.9596C121.807 61.2512 120.616 62.2227 120.113 63.4366C119.477 64.9742 120.131 66.1828 121.654 67.9817C123.791 70.4982 124.605 72.1143 123.689 74.3269C122.662 76.8073 119.758 77.8003 116.724 76.5442C115.324 75.9642 114.266 75.0669 113.443 74.307C113.526 73.6083 113.941 71.7633 114.285 70.4771L115.111 70.5985C114.938 72.3215 115.132 74.8647 117.506 75.8475C119.122 76.5165 120.566 75.819 121.187 74.32C121.891 72.6196 121.267 71.508 119.708 69.5771C117.831 67.2586 116.895 65.5645 117.804 63.3691C118.683 61.2455 121.225 60.0275 124.346 61.3194C125.691 61.8764 126.804 62.7437 127.256 63.0339C127.001 63.9088 126.703 64.9262 126.269 66.4975L125.462 66.3404Z" fill="white"/>
<path d="M137.088 71.1529C137.311 69.4679 137.301 67.6651 135.144 66.7721C133.433 66.0637 132.242 67.0352 131.739 68.2491C131.103 69.7867 131.757 70.9953 133.28 72.7942C135.417 75.3107 136.231 76.9268 135.315 79.1394C134.288 81.6198 131.384 82.6128 128.35 81.3567C126.95 80.7767 125.892 79.8794 125.069 79.1195C125.152 78.4208 125.567 76.5758 125.911 75.2896L126.737 75.411C126.557 77.1313 126.756 79.6763 129.129 80.6587C130.745 81.3277 132.189 80.6301 132.809 79.1312C133.513 77.4307 132.89 76.3192 131.331 74.3883C129.456 72.0732 128.521 70.377 129.43 68.1816C130.309 66.058 132.851 64.84 135.972 66.1319C137.317 66.6889 138.43 67.5562 138.882 67.8464C138.627 68.7213 138.329 69.7387 137.895 71.31L137.088 71.1529Z" fill="white"/>
<path d="M80.5577 72.3572C82.5263 73.5928 83.7814 75.3023 82.912 77.4024C82.3095 78.8574 80.9899 79.703 79.4295 79.8715C78.0461 80.033 76.7905 79.783 75.256 79.1477L69.7831 76.8818L70.0492 76.2389C71.9341 76.8147 72.1294 76.6847 72.8481 74.949L76.4232 66.314C77.1716 64.5064 77.0238 64.2582 75.3728 63.4052L75.6389 62.7623L81.4861 65.1832C83.1158 65.8579 84.0269 66.5527 84.5502 67.343C84.8439 67.772 85.0234 68.269 85.0719 68.7872C85.1204 69.3053 85.0362 69.8275 84.8273 70.3044C83.9995 72.3037 81.927 72.5715 80.5577 72.3572ZM78.1254 71.0402C80.4534 72.004 81.7814 71.4468 82.5062 69.6961C83.1637 68.1082 82.6272 66.6083 80.7056 65.8127C80.1143 65.5679 79.7086 65.4765 79.4428 65.5346C79.2019 65.5931 79.0574 65.8031 78.7872 66.4556L77.07 70.6032L78.1254 71.0402ZM74.9303 75.7621C74.2822 77.3275 74.5418 77.9107 76.0199 78.5189C77.6239 79.183 79.5736 78.8882 80.4989 76.6531C81.4083 74.4566 80.3362 72.8831 77.7291 71.8037L76.7389 71.3937L74.9303 75.7621Z" fill="white"/>
<path d="M100.737 73.907C99.1698 73.4576 98.7655 73.5839 97.3423 74.61C95.7625 75.7633 94.3845 76.886 92.5063 78.4241C92.126 78.7127 91.8372 79.1054 91.675 79.5546L90.5659 82.2333C89.8118 84.0548 89.9548 84.2508 91.8441 85.2728L91.5779 85.9157L85.2378 83.2907L85.504 82.6478C87.5335 83.1919 87.7075 83.2074 88.47 81.3656L89.6088 78.6151C89.792 78.1726 89.7883 77.9364 89.7121 77.2371C89.5531 75.5396 89.3753 73.8481 89.0446 71.2674C88.8135 69.4534 88.6921 69.0932 87.3129 68.3489L87.5791 67.7061L93.098 69.991L92.8318 70.6339C91.2011 70.2098 91.1635 70.5243 91.2421 71.4267C91.4445 73.4158 91.655 75.7483 91.8784 77.7411C93.2206 76.6413 95.3821 74.8214 96.4943 73.8535C97.4111 73.0068 97.4205 72.7421 95.8131 71.8682L96.0793 71.2254L101.008 73.2659L100.737 73.907Z" fill="white"/>
<path d="M49.384 51.627L45.6948 50.0996L39.0064 66.2541L42.6957 67.7816L49.384 51.627Z" fill="white"/>
<path d="M40.4876 56.8582C40.3154 57.2742 40.2701 57.7318 40.3575 58.1732C40.445 58.6145 40.6612 59.0199 40.9789 59.3379C41.2965 59.6559 41.7013 59.8723 42.1421 59.9597C42.5829 60.0471 43.0399 60.0017 43.4552 59.8291C43.8706 59.6564 44.2257 59.3644 44.4756 58.99C44.7255 58.6155 44.859 58.1754 44.8593 57.7253C44.8595 57.2752 44.7265 56.8353 44.477 56.4613C44.2275 56.0872 43.8727 55.7959 43.4575 55.624C43.1819 55.5098 42.8864 55.4512 42.5879 55.4515C42.2895 55.4517 41.9939 55.5109 41.7182 55.6255C41.4424 55.7401 41.1918 55.9079 40.9806 56.1194C40.7695 56.3309 40.6019 56.582 40.4876 56.8582Z" fill="white"/>
<path d="M71.8128 67.9686L51.1424 59.4105L53.636 53.3878L49.9468 51.8604L43.2588 68.0138L46.9481 69.5412L49.4421 63.5174L70.1124 72.0755L71.8128 67.9686Z" fill="white"/>
<path d="M130.61 85.0082L126.823 83.4404L119.959 100.02L123.745 101.588L130.61 85.0082Z" fill="white"/>
<path d="M129.089 94.6503C129.266 94.2231 129.312 93.7531 129.222 93.2999C129.132 92.8466 128.91 92.4305 128.584 92.1041C128.257 91.7777 127.842 91.5557 127.389 91.4662C126.936 91.3768 126.467 91.4239 126.04 91.6016C125.614 91.7793 125.25 92.0795 124.994 92.4644C124.737 92.8493 124.601 93.3014 124.601 93.7636C124.602 94.2259 124.739 94.6774 124.996 95.061C125.253 95.4447 125.618 95.7433 126.045 95.9189C126.327 96.0357 126.63 96.0955 126.936 96.0949C127.243 96.0943 127.546 96.0334 127.828 95.9156C128.111 95.7978 128.368 95.6254 128.584 95.4083C128.8 95.1912 128.972 94.9336 129.089 94.6503Z" fill="white"/>
<path d="M96.9374 83.2462L118.154 92.0305L115.595 98.2129L119.381 99.7806L126.246 83.1997L122.459 81.632L119.899 87.8154L98.6826 79.0311L96.9374 83.2462Z" fill="white"/>
<path d="M44.6866 85.7436C44.7795 84.6964 44.8265 83.7569 44.6512 82.9036C44.4596 81.6658 44.1003 81.2509 42.4075 80.5501L39.2679 79.2502C38.3397 78.8659 38.205 78.9131 37.8204 79.842L34.8779 86.9491L38.6291 88.5022C40.7903 89.3969 41.1228 89.0778 42.4885 87.0953L43.4584 87.4968L40.7391 94.0649L39.7382 93.6505C40.2429 91.3241 40.1889 90.7131 38.0759 89.8383L34.3247 88.2852L32.0751 93.7186C30.9439 96.4508 31.173 96.7114 33.8897 98.1098L33.5086 99.0302L24.6556 95.3648L25.0366 94.4444C27.6001 95.2811 27.9671 95.1845 29.0863 92.4812L34.1169 80.3307C35.241 77.6156 34.9966 77.3437 32.6367 76.088L33.0177 75.1676L42.9722 79.289C45.7418 80.4357 46.8989 80.8784 47.4336 81.0634C47.0454 82.0887 46.237 84.4074 45.7546 86.0263L44.6866 85.7436Z" fill="white"/>
<path d="M51.0915 106.313L51.4726 105.393C53.5827 105.969 53.9179 105.738 53.9845 104.348C54.0805 103.027 54.1147 101.25 54.2507 99.1731L47.6689 96.4481C46.654 97.5742 45.6947 98.5903 44.7786 99.6381C43.27 101.367 43.6568 101.818 46.0621 103.158L45.681 104.078L38.4266 101.075L38.8077 100.154C40.8643 100.715 41.455 100.692 43.678 98.3754L56.8419 84.7638L58.0069 85.0089C57.76 91.151 57.4878 97.8474 57.2409 104.005C57.1281 107.163 57.3065 107.522 59.3722 108.669L58.9911 109.589L51.0915 106.313ZM54.7894 88.8015C52.7391 90.9913 50.6026 93.2622 48.6975 95.31L54.3415 97.6468L54.7894 88.8015Z" fill="white"/>
<path d="M60.2309 110.097L60.612 109.177C63.2326 109.948 63.5424 109.917 64.6337 107.281L69.7064 95.0288C70.8084 92.3673 70.6103 92.1133 68.2146 90.8139L68.5957 89.8936L77.1376 93.4301L76.7565 94.3505C74.1156 93.5709 73.7972 93.6047 72.6952 96.2662L67.6225 108.518C66.5228 111.175 66.7316 111.39 69.1538 112.713L68.7728 113.634L60.2309 110.097Z" fill="white"/>
<path d="M121.345 112.815C118.695 112.008 118.386 112.069 117.307 114.675L112.189 127.036C111.11 129.641 111.338 129.864 113.744 131.174L113.362 132.094L104.821 128.558L105.202 127.638C107.883 128.384 108.147 128.414 109.226 125.809L111.771 119.66L101.566 115.435L99.0197 121.584C97.952 124.163 98.1641 124.367 100.543 125.709L100.161 126.629L91.6517 123.106L92.0327 122.185C94.6192 122.936 94.9525 122.951 96.0309 120.346L101.149 107.985C102.228 105.379 102.02 105.092 99.6341 103.826L100.015 102.905L108.525 106.429L108.144 107.349C105.596 106.545 105.206 106.642 104.138 109.222L102.129 114.074L112.335 118.299L114.344 113.448C115.412 110.868 115.164 110.516 112.803 109.278L113.184 108.358L121.726 111.894L121.345 112.815Z" fill="white"/>
<path d="M93.4051 88.2036L90.4697 86.9883L88.3253 92.1678L91.2606 93.3831L93.4051 88.2036Z" fill="white"/>
<path d="M77.8893 117.227L86.9777 95.2759L68.9796 87.8242L70.3628 84.4834L109.295 100.602L107.912 103.943L90.0167 96.5342L80.9284 118.485L77.8893 117.227Z" fill="white"/>
<path d="M79.0688 118.677C80.361 119.212 81.5606 119.278 81.7483 118.825C81.936 118.371 81.0406 117.57 79.7484 117.035C78.4562 116.5 77.2566 116.434 77.0689 116.887C76.8812 117.34 77.7766 118.142 79.0688 118.677Z" fill="white"/>
<path d="M107.684 104.496C108.136 104.683 108.937 103.785 109.473 102.49C110.009 101.196 110.077 99.9942 109.625 99.8069C109.172 99.6196 108.371 100.517 107.835 101.812C107.299 103.107 107.231 104.308 107.684 104.496Z" fill="white"/>
<path d="M68.7509 88.3765C69.2033 88.5638 70.0046 87.666 70.5406 86.3713C71.0767 85.0765 71.1445 83.8751 70.6922 83.6878C70.2398 83.5005 69.4385 84.3982 68.9024 85.693C68.3664 86.9878 68.2985 88.1892 68.7509 88.3765Z" fill="white"/>
</g>
<defs>
<linearGradient id="paint0_linear_3585_2682" x1="46.0532" y1="0.378906" x2="185.052" y2="106.618" gradientUnits="userSpaceOnUse">
<stop stop-color="#64B5AC"/>
<stop offset="1" stop-color="#2C4F4B"/>
</linearGradient>
<clipPath id="clip0_3585_2682">
<rect x="46.0532" y="0.378906" width="129.245" height="119" rx="20.4901" transform="rotate(22.4908 46.0532 0.378906)" fill="white"/>
</clipPath>
</defs>
</svg>
