<svg width="331" height="623" viewBox="0 0 331 623" fill="none" xmlns="http://www.w3.org/2000/svg">
<path d="M330.583 622.214H328.583V618.623H330.583V622.214ZM330.583 611.44H328.583V604.258H330.583V611.44ZM330.583 597.075H328.583V589.893H330.583V597.075ZM330.583 582.711H328.583V575.528H330.583V582.711ZM330.583 568.346H328.583V561.163H330.583V568.346ZM330.583 553.98H328.583V546.799H330.583V553.98ZM330.583 539.616H328.583V532.434H330.583V539.616ZM330.583 525.251H328.583V518.068H330.583V525.251ZM330.583 510.887H328.583V503.704H330.583V510.887ZM330.583 496.521H328.583V489.339H330.583V496.521ZM330.583 482.156H328.583V474.975H330.583V482.156ZM330.583 467.792H328.583V460.609H330.583V467.792ZM330.583 453.427H328.583V446.244H330.583V453.427ZM330.583 439.062H328.583V431.88H330.583V439.062ZM330.583 424.697H328.583V417.515H330.583V424.697ZM330.583 410.332H328.583V403.15H330.583V410.332ZM330.583 395.968H328.583V388.785H330.583V395.968ZM330.479 374.209C330.548 375.468 330.583 376.736 330.583 378.012V381.603H328.583V378.012L328.576 377.084C328.563 376.158 328.532 375.236 328.481 374.319L329.479 374.264L330.479 374.209ZM327.949 359.235C328.645 361.654 329.209 364.129 329.635 366.65L328.649 366.817L327.663 366.983C327.25 364.536 326.702 362.135 326.027 359.788L327.949 359.235ZM322.134 345.21C323.358 347.42 324.463 349.707 325.438 352.06L323.591 352.825C322.644 350.542 321.573 348.324 320.385 346.18L321.26 345.695L322.134 345.21ZM313.339 332.834C315.027 334.722 316.612 336.706 318.083 338.775L317.268 339.355L316.452 339.935C315.024 337.926 313.487 336.001 311.848 334.168L312.593 333.501L313.339 332.834ZM302.021 322.714C304.091 324.185 306.075 325.769 307.963 327.458L307.296 328.204L306.629 328.949C304.796 327.31 302.871 325.773 300.862 324.345L301.442 323.529L302.021 322.714ZM288.737 315.358C291.09 316.334 293.377 317.439 295.587 318.663L295.103 319.537L294.617 320.412C292.473 319.224 290.254 318.153 287.972 317.206L288.737 315.358ZM274.146 311.162C276.668 311.588 279.143 312.152 281.562 312.848L281.009 314.77C278.662 314.094 276.26 313.547 273.813 313.134L273.979 312.147L274.146 311.162ZM267.771 312.214H266.483L266.478 312.315C265.256 312.248 264.024 312.214 262.785 312.214V310.214C263.268 310.214 263.751 310.22 264.231 310.23V310.214H267.771V312.214ZM66.2871 310.135C67.3769 310.187 68.4741 310.214 69.5771 310.214H73.1162V312.214H69.5771C68.4419 312.214 67.3124 312.186 66.1904 312.132L66.2393 311.134L66.2871 310.135ZM87.2734 312.214H80.1943V310.214H87.2734V312.214ZM101.43 312.214H94.3516V310.214H101.43V312.214ZM115.586 312.214H108.508V310.214H115.586V312.214ZM129.743 312.214H122.665V310.214H129.743V312.214ZM143.899 312.214H136.821V310.214H143.899V312.214ZM158.057 312.214H150.978V310.214H158.057V312.214ZM172.213 312.214H165.135V310.214H172.213V312.214ZM186.37 312.214H179.291V310.214H186.37V312.214ZM200.526 312.214H193.448V310.214H200.526V312.214ZM214.683 312.214H207.604V310.214H214.683V312.214ZM228.84 312.214H221.762V310.214H228.84V312.214ZM242.996 312.214H235.918V310.214H242.996V312.214ZM257.153 312.214H250.074V310.214H257.153V312.214ZM53.291 308.221C55.4031 308.748 57.5549 309.175 59.7412 309.497L59.4502 311.476C57.1986 311.144 54.9822 310.704 52.8066 310.161L53.0488 309.191L53.291 308.221ZM40.9248 303.796C42.8981 304.731 44.9246 305.572 46.998 306.314L46.3242 308.197C44.1884 307.433 42.1009 306.566 40.0684 305.604L40.4971 304.699L40.9248 303.796ZM29.6641 297.033C31.4214 298.339 33.2453 299.56 35.1289 300.691L34.6133 301.549L34.0986 302.406C32.1588 301.241 30.2813 299.983 28.4717 298.639L29.0674 297.836L29.6641 297.033ZM19.9326 288.208C21.4061 289.833 22.9583 291.385 24.583 292.858L23.9111 293.6L23.2393 294.34C21.5664 292.823 19.9683 291.225 18.4512 289.552L19.1914 288.88L19.9326 288.208ZM12.0996 277.662C13.231 279.546 14.4524 281.37 15.7578 283.127L14.9551 283.724L14.1523 284.319C12.8081 282.51 11.5499 280.632 10.3848 278.692L11.2422 278.178L12.0996 277.662ZM6.47656 265.793C7.21859 267.866 8.06015 269.893 8.99512 271.866L8.0918 272.294L7.1875 272.723C6.2245 270.69 5.3581 268.603 4.59375 266.467L6.47656 265.793ZM3.29395 253.05C3.61555 255.236 4.0429 257.388 4.57031 259.5L3.59961 259.742L2.62988 259.984C2.08662 257.809 1.64664 255.592 1.31543 253.341L3.29395 253.05ZM2.57715 243.214C2.57715 244.317 2.60357 245.414 2.65625 246.504L1.65723 246.552L0.65918 246.601C0.604945 245.479 0.577148 244.349 0.577148 243.214V239.641H2.57715V243.214ZM2.57715 232.493H0.577148V225.347H2.57715V232.493ZM2.57715 218.199H0.577148V211.052H2.57715V218.199ZM2.57715 203.905H0.577148V196.758H2.57715V203.905ZM2.57715 189.611H0.577148V182.464H2.57715V189.611ZM2.57715 175.316H0.577148V168.17H2.57715V175.316ZM2.57715 161.022H0.577148V153.876H2.57715V161.022ZM2.57715 146.729H0.577148V139.581H2.57715V146.729ZM2.57715 132.435H0.577148V125.287H2.57715V132.435ZM2.57715 118.141H0.577148V110.993H2.57715V118.141ZM2.57715 103.847H0.577148V96.6992H2.57715V103.847ZM2.57715 89.5518H0.577148V82.4053H2.57715V89.5518ZM2.57715 75.2578H0.577148V68.1113H2.57715V75.2578ZM2.57715 60.9639H0.577148V53.8164H2.57715V60.9639ZM2.57715 46.6699H0.577148V39.5225H2.57715V46.6699ZM2.57715 32.376H0.577148V25.2285H2.57715V32.376ZM2.57715 18.0811H0.577148V10.9346H2.57715V18.0811ZM2.57715 3.78711H0.577148V0.213867H2.57715V3.78711Z" fill="url(#paint0_linear_3485_1752)"/>
<defs>
<linearGradient id="paint0_linear_3485_1752" x1="165.58" y1="0.213867" x2="165.58" y2="622.214" gradientUnits="userSpaceOnUse">
<stop stop-color="#C6C6C6" stop-opacity="0.45"/>
<stop offset="0.528846" stop-color="#C6C6C6"/>
<stop offset="1" stop-color="#C6C6C6" stop-opacity="0.45"/>
</linearGradient>
</defs>
</svg>
