<svg width="30" height="31" viewBox="0 0 30 31" fill="none" xmlns="http://www.w3.org/2000/svg">
<path fill-rule="evenodd" clip-rule="evenodd" d="M16.3803 0.638334C15.2747 0.453889 14.1462 0.453889 13.0406 0.638334L10.1027 1.12846H8.0977C7.28071 1.12846 6.48201 1.37052 5.80224 1.82413L3.16567 3.58352C2.18607 4.23721 1.53102 5.2776 1.36452 6.44421L0.243722 14.2973C0.0638974 15.5573 0.622869 16.8086 1.68086 17.5146C1.92131 17.6751 2.17792 17.8009 2.44378 17.892L3.183 24.1813C3.6065 27.7845 6.65729 30.5 10.2818 30.5H19.8915C23.516 30.5 26.5668 27.7845 26.9903 24.1813L27.7768 17.4898C28.8109 16.7795 29.3549 15.5426 29.1772 14.2973L28.0564 6.4442C27.8899 5.2776 27.2348 4.23721 26.2552 3.58352L23.6187 1.82413C22.9389 1.37052 22.1402 1.12846 21.3232 1.12846H19.3182L16.3803 0.638334ZM7.05431 3.70402C7.3633 3.49783 7.72634 3.38781 8.0977 3.38781H8.9176L7.64137 13.6074L4.03072 15.6726C3.68716 15.8691 3.26217 15.8545 2.93293 15.6348C2.59819 15.4114 2.42134 15.0155 2.47823 14.6168L3.59903 6.76373C3.67471 6.23345 3.97246 5.76055 4.41773 5.46342L7.05431 3.70402ZM5.15061 17.6343L8.72678 15.5888L10.1679 16.31C13.0275 17.7412 16.3934 17.7412 19.253 16.31L20.6941 15.5888L24.2703 17.6343C24.6379 17.8445 25.0349 17.9783 25.4398 18.0363L24.7486 23.9174C24.4588 26.3827 22.3714 28.2407 19.8915 28.2407H18.8486V24.8516C18.8486 22.564 16.9959 20.7095 14.7104 20.7095C12.425 20.7095 10.5723 22.564 10.5723 24.8516V28.2407H10.2818C7.80188 28.2407 5.7145 26.3827 5.42474 23.9174L4.71095 17.8444C4.86109 17.7858 5.00807 17.7158 5.15061 17.6343ZM25.3902 15.6726L21.7795 13.6074L20.5033 3.38781H21.3232C21.6946 3.38781 22.0576 3.49783 22.3666 3.70402L25.0032 5.46342C25.4484 5.76054 25.7462 6.23345 25.8219 6.76372L26.9427 14.6168C26.9996 15.0155 26.8227 15.4114 26.488 15.6348C26.1587 15.8545 25.7337 15.8691 25.3902 15.6726ZM16.0092 2.86694L18.2093 3.23397L19.5107 13.655L18.2435 14.2892C16.0194 15.4023 13.4015 15.4023 11.1774 14.2892L9.91019 13.655L11.2116 3.23397L13.4117 2.86694C14.2716 2.72349 15.1493 2.72349 16.0092 2.86694ZM14.7104 22.9688C15.7493 22.9688 16.5914 23.8118 16.5914 24.8516V28.2407H12.8295V24.8516C12.8295 23.8118 13.6716 22.9688 14.7104 22.9688Z" fill="#F40E00"/>
</svg>
