<svg width="34" height="30" viewBox="0 0 34 30" fill="none" xmlns="http://www.w3.org/2000/svg">
<path d="M23.7836 24.1901C24.467 24.1901 25.0211 23.6415 25.0211 22.9648C25.0211 22.288 24.467 21.7394 23.7836 21.7394C23.1001 21.7394 22.5461 22.288 22.5461 22.9648C22.5461 23.6415 23.1001 24.1901 23.7836 24.1901Z" fill="#F40E00"/>
<path fill-rule="evenodd" clip-rule="evenodd" d="M27.0836 2.9507H7.28359C5.00542 2.9507 3.15859 4.7794 3.15859 7.03521V20.1056C3.15859 22.3614 5.00542 24.1901 7.28359 24.1901H14.3633C14.054 23.4333 13.8836 22.6061 13.8836 21.7394V10.3028C13.8836 6.69352 16.8385 3.76761 20.4836 3.76761H27.0836C30.7287 3.76761 33.6836 6.69352 33.6836 10.3028V21.7394C33.6836 25.3487 30.7287 28.2746 27.0836 28.2746H21.7211C21.7211 28.9514 21.167 29.5 20.4836 29.5H13.8836C13.2001 29.5 12.6461 28.9514 12.6461 28.2746C12.6461 27.5979 13.2001 27.0493 13.8836 27.0493H16.6352C16.4516 26.9186 16.2751 26.7789 16.1064 26.6307C16.0539 26.6374 16.0004 26.6408 15.9461 26.6408H7.28359C3.63851 26.6408 0.683594 23.7149 0.683594 20.1056V7.03521C0.683594 3.42591 3.63851 0.5 7.28359 0.5H27.0836C28.5504 0.5 29.9054 0.973794 31.0011 1.77525C31.9724 2.48569 31.2899 3.76761 30.0824 3.76761C29.7427 3.76761 29.417 3.64979 29.1218 3.48334C28.5206 3.14435 27.8249 2.9507 27.0836 2.9507ZM27.0836 6.21831H20.4836C18.2054 6.21831 16.3586 8.04701 16.3586 10.3028V21.7394C16.3586 23.9952 18.2054 25.8239 20.4836 25.8239H27.0836C29.3618 25.8239 31.2086 23.9952 31.2086 21.7394V10.3028C31.2086 8.04701 29.3618 6.21831 27.0836 6.21831Z" fill="#F40E00"/>
</svg>
