<svg width="35" height="30" viewBox="0 0 35 30" fill="none" xmlns="http://www.w3.org/2000/svg">
<path d="M20.4311 8.04048C20.2872 7.46308 19.7656 7.06148 19.1725 7.07156C18.5795 7.08164 18.0717 7.50075 17.9474 8.08271L16.4381 15.1505L15.3154 11.3949C15.1652 10.8925 14.7246 10.533 14.2038 10.4879C13.683 10.4428 13.1875 10.7212 12.9537 11.1904L11.6061 13.8949H8.99414C8.28998 13.8949 7.71914 14.4677 7.71914 15.1743C7.71914 15.8809 8.28998 16.4537 8.99414 16.4537H12.3941C12.8771 16.4537 13.3186 16.1799 13.5345 15.7465L13.7967 15.2203L15.4229 20.6596C15.5902 21.219 16.1138 21.5938 16.6954 21.5703C17.277 21.5469 17.7689 21.1312 17.8908 20.56L19.2897 14.0095L19.6572 15.4846C19.7991 16.0542 20.3091 16.4537 20.8941 16.4537H25.9941C26.6983 16.4537 27.2691 15.8809 27.2691 15.1743C27.2691 14.4677 26.6983 13.8949 25.9941 13.8949H21.8896L20.4311 8.04048Z" fill="#F40E00"/>
<path fill-rule="evenodd" clip-rule="evenodd" d="M15.9782 29.2613C16.9251 29.812 18.0632 29.812 19.0101 29.2613C22.8014 27.0564 32.5091 20.8062 34.1685 13.755C35.6669 7.38792 31.8641 0.772349 25.4245 0.677278C25.2915 0.675315 25.1566 0.674316 25.0197 0.674316C22.4274 0.674316 20.113 1.97364 18.7562 2.93426C18.015 3.45906 16.9733 3.45906 16.2321 2.93426C14.8752 1.97364 12.5609 0.674316 9.96854 0.674316C9.83165 0.674316 9.69676 0.675315 9.56383 0.677278C3.12417 0.772349 -0.678662 7.38793 0.819735 13.755C2.47914 20.8062 12.1869 27.0564 15.9782 29.2613ZM31.6868 13.1669C31.0487 15.8785 28.7296 18.7574 25.7129 21.3969C22.7784 23.9644 19.5594 25.9844 17.7315 27.0474C17.5754 27.1382 17.4129 27.1382 17.2568 27.0474C15.4289 25.9844 12.2099 23.9644 9.27535 21.3969C6.25865 18.7574 3.93962 15.8785 3.30147 13.1669C2.05711 7.87929 5.27786 3.29965 9.60134 3.23582C9.72163 3.23405 9.84401 3.23314 9.96854 3.23314C11.7726 3.23314 13.5552 4.17064 14.762 5.02506C16.3846 6.17389 18.6037 6.1739 20.2263 5.02506C21.4331 4.17064 23.2157 3.23314 25.0197 3.23314C25.1443 3.23314 25.2667 3.23405 25.3869 3.23582C29.7104 3.29965 32.9312 7.87928 31.6868 13.1669Z" fill="#F40E00"/>
</svg>
