<svg width="218" height="46" viewBox="0 0 218 46" fill="none" xmlns="http://www.w3.org/2000/svg">
<path d="M9.83771 4.31228V20.2862H17.0061V27.5131H0.908203V4.31228H9.83771ZM28.6862 24.0742L28.0418 27.5131H18.4052L25.2123 4.31228H36.6093L43.4164 27.5131H33.7798L33.151 24.0742H28.6862ZM32.1289 18.5747L30.9189 12.0303L29.7083 18.5747H32.1289ZM55.8198 4.31228H65.142V18.5747C65.142 20.3393 64.6441 21.9504 63.6484 23.4082C62.6632 24.8665 61.3374 26.0282 59.6715 26.895C58.0049 27.7612 56.1605 28.1943 54.1377 28.1943C52.1148 28.1943 50.2704 27.7612 48.6038 26.895C46.9379 26.0282 45.6065 24.8665 44.6113 23.4082C43.6262 21.9504 43.1333 20.3393 43.1333 18.5747V4.31228H52.4555V18.1157C52.4555 18.6334 52.6183 19.0766 52.9427 19.4465C53.2784 19.8165 53.6767 20.0015 54.1377 20.0015C54.5986 20.0015 54.9919 19.8165 55.3169 19.4465C55.652 19.0766 55.8198 18.6334 55.8198 18.1157V4.31228ZM83.0474 4.31228H91.2535V27.5131H83.0474L76.1934 16.9585V27.5131H67.9716V4.31228H76.1934L83.0474 14.8669V4.31228ZM111.832 19.8108V27.3382C109.924 27.9196 108.095 28.21 106.345 28.21C103.212 28.21 100.722 27.6816 98.8779 26.6254C97.0441 25.5686 95.5974 24.1266 94.539 22.2989C93.4912 20.4611 92.9564 18.3531 92.9357 15.9761C92.9564 13.5884 93.4912 11.4804 94.539 9.65271C95.5974 7.8149 97.0441 6.37294 98.8779 5.32682C100.722 4.26998 103.212 3.74219 106.345 3.74219C108.095 3.74219 109.924 4.03259 111.832 4.61342V12.1408C110.406 11.5069 108.955 11.19 107.477 11.19C105.8 11.19 104.538 11.5865 103.688 12.3788C102.85 13.1604 102.431 14.3599 102.431 15.9761C102.431 17.5923 102.85 18.7969 103.688 19.5892C104.538 20.3708 105.8 20.7616 107.477 20.7616C108.955 20.7616 110.406 20.4447 111.832 19.8108ZM127.473 19.098H122.852V27.5131H114.127V4.31228H122.852V12.7273H127.473V4.31228H136.182V27.5131H127.473V19.098Z" fill="#212121"/>
<path d="M146.407 10.3803V13.3299H148.245C148.647 13.3299 148.997 13.1859 149.295 12.8974C149.594 12.6193 149.743 12.2747 149.743 11.8625C149.743 11.4509 149.594 11.1008 149.295 10.8122C148.997 10.5243 148.647 10.3803 148.245 10.3803H146.407ZM149.929 21.1905C150.227 20.8509 150.376 20.4547 150.376 20.0018C150.376 19.5281 150.207 19.1159 149.867 18.7658C149.506 18.4262 149.09 18.2563 148.616 18.2563H146.407V21.716H148.771C149.244 21.716 149.63 21.5406 149.929 21.1905ZM154.269 15.1215C157.172 16.0894 158.624 17.9475 158.624 20.6965C158.624 22.8899 157.939 24.5419 156.57 25.6543C155.2 26.7661 153.646 27.3223 151.905 27.3223H138.531V4.71184H151.18C153.085 4.71184 154.619 5.21635 155.782 6.22539C156.946 7.23443 157.527 8.57817 157.527 10.2566C157.527 12.7275 156.441 14.3494 154.269 15.1215ZM167.041 16.1097C167.041 17.067 167.241 17.8909 167.643 18.5806C168.044 19.2703 168.58 19.8006 169.249 20.1717C169.929 20.5316 170.675 20.7119 171.489 20.7119C172.302 20.7119 173.043 20.5316 173.712 20.1717C174.392 19.8006 174.932 19.2703 175.334 18.5806C175.736 17.8909 175.936 17.067 175.936 16.1097C175.936 15.1523 175.736 14.3235 175.334 13.6234C174.932 12.9232 174.392 12.3824 173.712 12.0015C173.043 11.6207 172.302 11.4299 171.489 11.4299C170.675 11.4299 169.929 11.6207 169.249 12.0015C168.58 12.3824 168.044 12.9232 167.643 13.6234C167.241 14.3235 167.041 15.1523 167.041 16.1097ZM159.442 16.1404C159.442 14.3285 159.756 12.6863 160.384 11.214C161.012 9.73119 161.878 8.46496 162.979 7.4147C164.091 6.36444 165.373 5.56151 166.824 5.00531C168.287 4.43927 169.841 4.15625 171.489 4.15625C173.146 4.15625 174.701 4.43927 176.152 5.00531C177.615 5.56151 178.896 6.36444 179.998 7.4147C181.1 8.46496 181.965 9.73119 182.593 11.214C183.221 12.6863 183.535 14.3285 183.535 16.1404C183.535 17.9838 183.221 19.6413 182.593 21.1136C181.975 22.5755 181.115 23.8214 180.014 24.8508C178.912 25.8703 177.63 26.6474 176.168 27.1833C174.716 27.7185 173.157 27.9862 171.489 27.9862C169.831 27.9862 168.271 27.7185 166.809 27.1833C165.358 26.6474 164.081 25.8703 162.979 24.8508C161.878 23.8214 161.012 22.5755 160.384 21.1136C159.756 19.6413 159.442 17.9838 159.442 16.1404ZM207.519 4.71184L201.48 15.3529L207.952 27.3223H198.531L195.365 20.3722L192.199 27.3223H182.778L189.249 15.3529L183.211 4.71184H192.709L195.365 10.9513L198.021 4.71184H207.519Z" fill="#F40E00"/>
<path opacity="0.8" d="M144.477 34.3344C144.334 34.0716 144.128 33.8727 143.858 33.7376C143.595 33.5949 143.283 33.5236 142.923 33.5236C142.3 33.5236 141.801 33.7301 141.425 34.143C141.05 34.5484 140.862 35.0927 140.862 35.7758C140.862 36.504 141.057 37.0746 141.448 37.4875C141.846 37.8929 142.39 38.0956 143.081 38.0956C143.554 38.0956 143.952 37.9755 144.274 37.7353C144.605 37.495 144.845 37.1497 144.995 36.6992H142.551V35.2803H146.741V37.0709C146.598 37.5513 146.354 37.998 146.009 38.4109C145.671 38.8238 145.239 39.1579 144.714 39.4132C144.188 39.6684 143.595 39.7961 142.934 39.7961C142.154 39.7961 141.455 39.6271 140.84 39.2893C140.232 38.944 139.755 38.4672 139.41 37.8591C139.072 37.251 138.903 36.5566 138.903 35.7758C138.903 34.9951 139.072 34.3006 139.41 33.6925C139.755 33.0769 140.232 32.6002 140.84 32.2624C141.448 31.917 142.142 31.7443 142.923 31.7443C143.869 31.7443 144.665 31.9733 145.31 32.4313C145.964 32.8892 146.395 33.5236 146.605 34.3344H144.477ZM154.8 38.2533H157.323V39.7397H152.875V31.8344H154.8V38.2533ZM167.048 39.8186C166.304 39.8186 165.621 39.6459 164.998 39.3006C164.382 38.9552 163.891 38.4747 163.523 37.8591C163.163 37.236 162.982 36.5378 162.982 35.7646C162.982 34.9913 163.163 34.2969 163.523 33.6813C163.891 33.0656 164.382 32.5852 164.998 32.2398C165.621 31.8945 166.304 31.7218 167.048 31.7218C167.791 31.7218 168.47 31.8945 169.086 32.2398C169.709 32.5852 170.197 33.0656 170.55 33.6813C170.91 34.2969 171.09 34.9913 171.09 35.7646C171.09 36.5378 170.91 37.236 170.55 37.8591C170.189 38.4747 169.701 38.9552 169.086 39.3006C168.47 39.6459 167.791 39.8186 167.048 39.8186ZM167.048 38.0618C167.678 38.0618 168.181 37.8516 168.557 37.4312C168.939 37.0108 169.131 36.4552 169.131 35.7646C169.131 35.0664 168.939 34.5108 168.557 34.0979C168.181 33.6775 167.678 33.4673 167.048 33.4673C166.409 33.4673 165.899 33.6738 165.516 34.0867C165.141 34.4996 164.953 35.0589 164.953 35.7646C164.953 36.4628 165.141 37.0221 165.516 37.4425C165.899 37.8554 166.409 38.0618 167.048 38.0618ZM182.015 35.6857C182.473 35.7833 182.841 36.0123 183.119 36.3727C183.397 36.7255 183.535 37.1309 183.535 37.5889C183.535 38.2495 183.303 38.775 182.837 39.1654C182.379 39.5483 181.737 39.7397 180.912 39.7397H177.229V31.8344H180.788C181.591 31.8344 182.218 32.0184 182.668 32.3862C183.126 32.7541 183.355 33.2533 183.355 33.884C183.355 34.3494 183.231 34.7361 182.984 35.0439C182.743 35.3517 182.421 35.5656 182.015 35.6857ZM179.155 35.0326H180.416C180.731 35.0326 180.972 34.965 181.137 34.8299C181.309 34.6873 181.396 34.4808 181.396 34.2105C181.396 33.9403 181.309 33.7338 181.137 33.5912C180.972 33.4485 180.731 33.3772 180.416 33.3772H179.155V35.0326ZM180.574 38.1857C180.897 38.1857 181.144 38.1144 181.317 37.9717C181.497 37.8216 181.587 37.6076 181.587 37.3299C181.587 37.0521 181.493 36.8344 181.306 36.6767C181.126 36.5191 180.874 36.4402 180.551 36.4402H179.155V38.1857H180.574ZM194.641 38.3434H191.69L191.218 39.7397H189.202L192.062 31.8344H194.292L197.152 39.7397H195.114L194.641 38.3434ZM194.145 36.8569L193.166 33.9628L192.197 36.8569H194.145ZM205.016 38.2533H207.538V39.7397H203.09V31.8344H205.016V38.2533Z" fill="#212121"/>
</svg>
