<svg width="32" height="30" viewBox="0 0 32 30" fill="none" xmlns="http://www.w3.org/2000/svg">
<path d="M10.523 6.82051C10.523 6.2045 11.0177 5.70513 11.6279 5.70513H13.1011C13.7113 5.70513 14.206 6.2045 14.206 6.82051C14.206 7.43652 13.7113 7.9359 13.1011 7.9359H11.6279C11.0177 7.9359 10.523 7.43652 10.523 6.82051Z" fill="#F40E00"/>
<path d="M17.5207 5.70513C16.9105 5.70513 16.4158 6.2045 16.4158 6.82051C16.4158 7.43652 16.9105 7.9359 17.5207 7.9359H18.9939C19.6041 7.9359 20.0988 7.43652 20.0988 6.82051C20.0988 6.2045 19.6041 5.70513 18.9939 5.70513H17.5207Z" fill="#F40E00"/>
<path d="M10.523 11.2821C10.523 10.666 11.0177 10.1667 11.6279 10.1667H13.1011C13.7113 10.1667 14.206 10.666 14.206 11.2821C14.206 11.8981 13.7113 12.3974 13.1011 12.3974H11.6279C11.0177 12.3974 10.523 11.8981 10.523 11.2821Z" fill="#F40E00"/>
<path d="M11.6279 14.6282C11.0177 14.6282 10.523 15.1276 10.523 15.7436C10.523 16.3596 11.0177 16.859 11.6279 16.859H13.1011C13.7113 16.859 14.206 16.3596 14.206 15.7436C14.206 15.1276 13.7113 14.6282 13.1011 14.6282H11.6279Z" fill="#F40E00"/>
<path d="M10.523 20.2051C10.523 19.5891 11.0177 19.0897 11.6279 19.0897H13.1011C13.7113 19.0897 14.206 19.5891 14.206 20.2051C14.206 20.8211 13.7113 21.3205 13.1011 21.3205H11.6279C11.0177 21.3205 10.523 20.8211 10.523 20.2051Z" fill="#F40E00"/>
<path d="M17.5207 10.1667C16.9105 10.1667 16.4158 10.666 16.4158 11.2821C16.4158 11.8981 16.9105 12.3974 17.5207 12.3974H18.9939C19.6041 12.3974 20.0988 11.8981 20.0988 11.2821C20.0988 10.666 19.6041 10.1667 18.9939 10.1667H17.5207Z" fill="#F40E00"/>
<path d="M16.4158 15.7436C16.4158 15.1276 16.9105 14.6282 17.5207 14.6282H18.9939C19.6041 14.6282 20.0988 15.1276 20.0988 15.7436C20.0988 16.3596 19.6041 16.859 18.9939 16.859H17.5207C16.9105 16.859 16.4158 16.3596 16.4158 15.7436Z" fill="#F40E00"/>
<path d="M17.5207 19.0897C16.9105 19.0897 16.4158 19.5891 16.4158 20.2051C16.4158 20.8211 16.9105 21.3205 17.5207 21.3205H18.9939C19.6041 21.3205 20.0988 20.8211 20.0988 20.2051C20.0988 19.5891 19.6041 19.0897 18.9939 19.0897H17.5207Z" fill="#F40E00"/>
<path fill-rule="evenodd" clip-rule="evenodd" d="M6.10345 6.07692C6.10345 2.99687 8.57685 0.5 11.6279 0.5H18.9939C22.045 0.5 24.5184 2.99687 24.5184 6.07692V23.9231C24.5184 27.0031 22.045 29.5 18.9939 29.5H6.47175C3.42066 29.5 0.947266 27.0031 0.947266 23.9231V15.7436C0.947266 12.7885 3.22408 10.3702 6.10345 10.1789V6.07692ZM18.9939 27.2692H18.6256V26.1538C18.6256 24.3058 17.1416 22.8077 15.3109 22.8077C13.4803 22.8077 11.9962 24.3058 11.9962 26.1538V27.2692H11.6279C9.79728 27.2692 8.31324 25.7711 8.31324 23.9231V6.07692C8.31324 4.22889 9.79728 2.73077 11.6279 2.73077H18.9939C20.8246 2.73077 22.3086 4.22889 22.3086 6.07692V23.9231C22.3086 25.7711 20.8246 27.2692 18.9939 27.2692ZM16.4158 26.1538V27.2692H14.206V26.1538C14.206 25.5378 14.7007 25.0385 15.3109 25.0385C15.9211 25.0385 16.4158 25.5378 16.4158 26.1538ZM6.10345 12.4179C4.44612 12.6028 3.15706 14.0212 3.15706 15.7436V23.9231C3.15706 25.7711 4.6411 27.2692 6.47175 27.2692H7.20794C6.51441 26.3371 6.10345 25.1786 6.10345 23.9231V12.4179Z" fill="#F40E00"/>
<path fill-rule="evenodd" clip-rule="evenodd" d="M29.8569 20.8658C29.786 21.0082 29.7243 21.1294 29.6746 21.2257V28.3846C29.6746 29.0006 29.18 29.5 28.5697 29.5C27.9595 29.5 27.4648 29.0006 27.4648 28.3846V21.2257C27.4152 21.1294 27.3535 21.0082 27.2826 20.8658C27.0942 20.4872 26.8396 19.9561 26.5741 19.3443C26.0552 18.1486 25.448 16.541 25.2647 15.1468C24.8723 12.1626 26.163 9.74126 26.9982 8.52201C27.7706 7.3945 29.3688 7.39451 30.1412 8.52201C30.9765 9.74126 32.2672 12.1626 31.8748 15.1468C31.6915 16.541 31.0843 18.1486 30.5654 19.3443C30.2999 19.9561 30.0453 20.4872 29.8569 20.8658ZM27.4552 14.8532C27.2003 12.9148 27.916 11.2385 28.5697 10.1706C29.2235 11.2385 29.9391 12.9148 29.6842 14.8532C29.5468 15.8986 29.065 17.2341 28.5697 18.3834C28.0745 17.2341 27.5927 15.8986 27.4552 14.8532Z" fill="#F40E00"/>
</svg>
