<svg width="39" height="31" viewBox="0 0 39 31" fill="none" xmlns="http://www.w3.org/2000/svg">
<path fill-rule="evenodd" clip-rule="evenodd" d="M9.87375 7.86467C8.41987 9.98137 7.75959 12.8278 8.70155 16.3008C8.89793 17.0249 8.50675 17.7783 7.79895 18.0393C5.95338 18.7198 4.88157 19.6858 4.33144 20.6382C3.78439 21.5853 3.68767 22.6268 3.97644 23.6205C4.55448 25.6097 6.78709 27.5968 10.4356 27.5967H28.1974C30.9995 27.3553 32.9204 26.3327 34.1395 25.0429C35.3762 23.7344 35.9714 22.0672 35.9715 20.4152C35.9715 17.1252 33.648 14.0067 29.3076 14.0067C28.5671 14.0067 27.9436 13.4567 27.8562 12.7264C27.3744 8.69948 25.663 6.21264 23.5843 4.84113C21.4761 3.45017 18.8169 3.09184 16.2608 3.66302C13.7028 4.23461 11.3491 5.71677 9.87375 7.86467ZM30.5753 11.1716C29.8199 7.07895 27.8488 4.16932 25.2017 2.42282C22.3298 0.52801 18.8294 0.113224 15.6192 0.830571C12.4107 1.54753 9.39118 3.41556 7.45905 6.22853C5.69639 8.79478 4.88806 12.0782 5.59528 15.8233C3.85997 16.673 2.58324 17.8306 1.79598 19.1935C0.835855 20.8557 0.670436 22.7134 1.16799 24.4256C2.16259 27.8483 5.69647 30.5 10.4356 30.5H28.2591C28.2992 30.5 28.3393 30.4984 28.3793 30.4951C31.8361 30.2119 34.4839 28.9204 36.2706 27.03C38.0481 25.1493 38.8945 22.7577 38.8945 20.4152C38.8945 16.0499 35.9232 11.759 30.5753 11.1716Z" fill="#F40E00"/>
</svg>
