<svg width="26" height="31" viewBox="0 0 26 31" fill="none" xmlns="http://www.w3.org/2000/svg">
<path d="M8.69105 16.1188C8.69105 15.3229 9.33492 14.6777 10.1292 14.6777C10.9234 14.6777 11.5673 15.3229 11.5673 16.1188C11.5673 16.9147 10.9234 17.56 10.1292 17.56C9.33492 17.56 8.69105 16.9147 8.69105 16.1188Z" fill="#F40E00"/>
<path d="M10.1292 19.0011C9.33492 19.0011 8.69105 19.6463 8.69105 20.4422C8.69105 21.2381 9.33492 21.8834 10.1292 21.8834C10.9234 21.8834 11.5673 21.2381 11.5673 20.4422C11.5673 19.6463 10.9234 19.0011 10.1292 19.0011Z" fill="#F40E00"/>
<path d="M12.2863 17.9202C12.2863 17.3233 12.7692 16.8394 13.3649 16.8394C13.9606 16.8394 14.4435 17.3233 14.4435 17.9202C14.4435 18.5172 13.9606 19.0011 13.3649 19.0011C12.7692 19.0011 12.2863 18.5172 12.2863 17.9202Z" fill="#F40E00"/>
<path fill-rule="evenodd" clip-rule="evenodd" d="M18.7582 0.5C16.9641 0.5 15.5745 2.07322 15.7923 3.85778L16.2415 7.5379V8.81602C16.2415 9.14908 16.1487 9.48718 15.9706 9.79604C15.7503 10.1779 15.4618 10.6913 15.1451 11.2879C15.0379 11.4898 14.9274 11.7015 14.815 11.9212C13.4254 11.1523 11.8273 10.7146 10.1292 10.7146C4.76798 10.7146 0.421875 15.0698 0.421875 20.4422C0.421875 25.8147 4.76798 30.1699 10.1292 30.1699C11.6786 30.1699 13.1455 29.8053 14.4467 29.1569C15.2599 29.8485 16.2763 30.3012 17.3635 30.4485C17.7987 30.5074 18.2392 30.5158 18.6764 30.4735L19.9351 30.3518C22.2949 30.1235 24.438 28.4456 24.8553 25.9601C24.8859 25.778 24.9157 25.6018 24.9446 25.4309L24.9463 25.4212C25.2053 23.8897 25.3926 22.7826 25.4187 21.68C25.4485 20.4175 25.2698 19.191 24.8432 17.3193C24.3845 15.3074 23.2424 12.9287 22.3714 11.2879C22.0547 10.6913 21.7661 10.1779 21.5459 9.79604C21.3678 9.48718 21.2749 9.14908 21.2749 8.81602V7.5379L21.7241 3.85778C21.9419 2.07322 20.5523 0.5 18.7582 0.5ZM18.3987 8.81602V8.55289H19.1178V8.81602C19.1178 9.4881 19.2884 10.1373 19.5888 10.7146H17.9277C18.2281 10.1373 18.3987 9.4881 18.3987 8.81602ZM19.5829 3.59533L19.2416 6.39119H18.2748L17.9336 3.59533C17.873 3.09913 18.2594 2.6617 18.7582 2.6617C19.2571 2.6617 19.6435 3.09913 19.5829 3.59533ZM16.7506 12.8763H20.7659C21.5533 14.4135 22.3945 16.2842 22.7401 17.8007C23.152 19.6074 23.2857 20.6308 23.2621 21.6289C23.24 22.5664 23.081 23.5089 22.8129 25.0978L22.7281 25.6014C22.4959 26.9841 21.2641 28.0514 19.7278 28.2001L18.4691 28.3218C18.1972 28.3481 17.9232 28.3429 17.6525 28.3062C17.195 28.2443 16.764 28.0974 16.3819 27.8832C18.493 26.0999 19.8365 23.4286 19.8365 20.4422C19.8365 17.5572 18.5823 14.9656 16.5938 13.1854C16.6463 13.0808 16.6986 12.9777 16.7506 12.8763ZM2.57905 20.4422C2.57905 16.2637 5.95935 12.8763 10.1292 12.8763C11.8075 12.8763 13.3551 13.4238 14.608 14.3506C16.4731 15.7302 17.6793 17.945 17.6793 20.4422C17.6793 23.172 16.2374 25.5652 14.07 26.8972C12.9236 27.6017 11.5754 28.0082 10.1292 28.0082C5.95935 28.0082 2.57905 24.6208 2.57905 20.4422Z" fill="#F40E00"/>
</svg>
