<svg width="31" height="31" viewBox="0 0 31 31" fill="none" xmlns="http://www.w3.org/2000/svg">
<path d="M8.44691 26C9.68243 26 10.684 24.9926 10.684 23.75C10.684 22.5074 9.68243 21.5 8.44691 21.5C7.2114 21.5 6.20981 22.5074 6.20981 23.75C6.20981 24.9926 7.2114 26 8.44691 26Z" fill="#F40E00"/>
<path d="M24.1066 23.75C24.1066 24.9926 23.105 26 21.8695 26C20.634 26 19.6324 24.9926 19.6324 23.75C19.6324 22.5074 20.634 21.5 21.8695 21.5C23.105 21.5 24.1066 22.5074 24.1066 23.75Z" fill="#F40E00"/>
<path fill-rule="evenodd" clip-rule="evenodd" d="M1.73562 16.7238V6.5C1.73562 3.18629 4.40651 0.5 7.70121 0.5H22.6152C25.9099 0.5 28.5808 3.18629 28.5808 6.5V16.7238C29.0848 16.4951 29.6916 16.6722 29.9905 17.1578C30.3157 17.6861 30.1536 18.3794 29.6283 18.7065L28.5808 19.3588V24.5C28.5808 27.8137 25.9099 30.5 22.6152 30.5H7.70121C4.4065 30.5 1.73562 27.8137 1.73562 24.5V19.3588L0.688089 18.7065C0.162853 18.3794 0.000687867 17.6861 0.325883 17.1578C0.624831 16.6722 1.23158 16.4951 1.73562 16.7238ZM3.97272 6.5C3.97272 4.42893 5.64202 2.75 7.70121 2.75H22.6152C24.6744 2.75 26.3437 4.42893 26.3437 6.5V6.59451C26.1054 6.53281 25.8555 6.5 25.598 6.5H4.71841C4.46093 6.5 4.21106 6.53281 3.97272 6.59451V6.5ZM3.97272 9.5V17C3.97272 17.4142 4.30658 17.75 4.71841 17.75H25.598C26.0098 17.75 26.3437 17.4142 26.3437 17V9.5C26.3437 9.08579 26.0098 8.75 25.598 8.75H4.71841C4.30658 8.75 3.97272 9.08579 3.97272 9.5ZM26.3437 19.9055C26.1054 19.9672 25.8555 20 25.598 20H4.71841C4.46093 20 4.21106 19.9672 3.97272 19.9055V24.5C3.97272 26.5711 5.64202 28.25 7.70121 28.25H22.6152C24.6744 28.25 26.3437 26.5711 26.3437 24.5V19.9055Z" fill="#F40E00"/>
</svg>
