<svg width="61" height="71" viewBox="0 0 61 71" fill="none" xmlns="http://www.w3.org/2000/svg">
<path fill-rule="evenodd" clip-rule="evenodd" d="M15.2878 0.679073C16.064 0.000401258 17.1692 -0.140093 18.0882 0.323102L23.7266 3.16512L29.3639 0.323177C30.0791 -0.0373658 30.9209 -0.0373658 31.6361 0.323176L37.2734 3.16512L42.9118 0.323102C43.8308 -0.140093 44.936 0.000401258 45.7122 0.679074C46.4883 1.35775 46.7825 2.44095 46.4576 3.4236L44.9513 7.97958C46.0623 7.54154 47.2285 7.13659 48.4025 6.80581C50.144 6.31514 51.9976 5.96026 53.7666 5.94313C55.5158 5.92619 57.407 6.23803 59.0052 7.31215C60.1725 8.09671 60.4879 9.68674 59.7097 10.8636C58.9315 12.0404 57.3543 12.3584 56.187 11.5739C55.753 11.2821 55.0052 11.0533 53.8154 11.0648C52.6455 11.0762 51.2602 11.3189 49.7699 11.7387C48.608 12.0661 47.4398 12.4846 46.3377 12.9362C55.7425 19.1357 61.3713 31.4127 60.9809 42.824C60.7511 49.5413 58.4425 56.1741 53.4115 61.2462C48.3706 66.3284 40.8373 69.602 30.6103 70.0503C30.5368 70.0535 30.4632 70.0535 30.3897 70.0503C20.1627 69.602 12.6294 66.3284 7.58849 61.2462C2.55751 56.1741 0.248885 49.5413 0.0190685 42.824C-0.405286 30.4204 6.28192 16.9939 17.1999 11.4614L14.5424 3.4236C14.2175 2.44095 14.5117 1.35775 15.2878 0.679073ZM20.2203 15.683C10.9916 19.8999 4.716 31.5268 5.09647 42.6474C5.29014 48.3081 7.21529 53.6265 11.1809 57.6245C15.1208 61.5966 21.3131 64.5046 30.5 64.9282C39.6869 64.5046 45.8792 61.5966 49.8191 57.6245C53.7847 53.6265 55.7099 48.3081 55.9035 42.6474C56.2857 31.4766 49.9517 19.7951 40.6547 15.6264C31.809 19.0962 24.1284 17.5119 20.2203 15.683ZM38.6215 10.927C31.2507 13.7516 25.1129 12.3078 22.4255 11.0694L21.3013 7.66908L22.5907 8.31902C23.3059 8.67949 24.1476 8.67946 24.8628 8.31894L30.5 5.47705L36.1373 8.31894C36.8524 8.67946 37.6941 8.67949 38.4093 8.31902L39.6987 7.66908L38.6215 10.927Z" fill="#363538"/>
<path fill-rule="evenodd" clip-rule="evenodd" d="M30.1774 27.7967C31.3465 27.7967 32.2943 28.7521 32.2943 29.9308V29.9534C36.2816 30.3701 39.3907 33.7682 39.3907 37.8983C39.3907 39.0769 38.443 40.0324 37.2739 40.0324C36.1048 40.0324 35.157 39.0769 35.157 37.8983C35.157 36.1305 33.9339 34.6508 32.2943 34.2725V40.1551C36.2227 40.2094 39.3907 43.437 39.3907 47.4105C39.3907 51.384 36.2227 54.6115 32.2942 54.6659C32.2837 55.8355 31.34 56.7804 30.1774 56.7804C29.0083 56.7804 28.0606 55.8249 28.0606 54.6462V54.529C24.388 53.8335 21.6092 50.5833 21.6092 46.6788C21.6092 45.5001 22.557 44.5446 23.7261 44.5446C24.8952 44.5446 25.8429 45.5001 25.8429 46.6788C25.8429 48.2056 26.7554 49.5175 28.0606 50.0906V44.3842C24.4361 44.0079 21.6092 40.9201 21.6092 37.1666C21.6092 33.4131 24.4361 30.3252 28.0606 29.949V29.9308C28.0606 28.7521 29.0083 27.7967 30.1774 27.7967ZM28.0606 34.2742C26.7849 34.6077 25.8429 35.7762 25.8429 37.1666C25.8429 38.5569 26.7849 39.7255 28.0606 40.0589V34.2742ZM32.2943 44.4244V50.3966C33.8843 50.343 35.157 49.0266 35.157 47.4105C35.157 45.7944 33.8843 44.4779 32.2943 44.4244Z" fill="#478AFF"/>
</svg>
