<svg width="70" height="70" viewBox="0 0 70 70" fill="none" xmlns="http://www.w3.org/2000/svg">
<path d="M23.625 35C23.625 36.4497 22.4497 37.625 21 37.625C19.5503 37.625 18.375 36.4497 18.375 35C18.375 25.8183 25.8183 18.375 35 18.375C37.1906 18.375 39.2823 18.7987 41.1976 19.5686L43.2491 16.1494C43.995 14.9063 45.6074 14.5032 46.8506 15.2491C48.0937 15.995 48.4968 17.6074 47.7509 18.8506L45.6973 22.2732C49.3218 25.3229 51.625 29.8925 51.625 35C51.625 36.4497 50.4497 37.625 49 37.625C47.5503 37.625 46.375 36.4497 46.375 35C46.375 31.8093 45.0613 28.9255 42.9453 26.8598L40.5898 30.7858C41.475 31.9581 42 33.4178 42 35C42 38.866 38.866 42 35 42C31.134 42 28 38.866 28 35C28 31.134 31.134 28 35 28C35.3702 28 35.7336 28.0287 36.0883 28.0841L38.4451 24.156C37.3584 23.8111 36.2009 23.625 35 23.625C28.7178 23.625 23.625 28.7178 23.625 35Z" fill="#478AFF"/>
<path fill-rule="evenodd" clip-rule="evenodd" d="M70 35C70 54.33 54.33 70 35 70C15.67 70 0 54.33 0 35C0 15.67 15.67 0 35 0C54.33 0 70 15.67 70 35ZM64.75 35C64.75 51.4305 51.4305 64.75 35 64.75C18.5695 64.75 5.25 51.4305 5.25 35C5.25 18.5695 18.5695 5.25 35 5.25C51.4305 5.25 64.75 18.5695 64.75 35Z" fill="#212121"/>
</svg>
