<svg width="46" height="54" viewBox="0 0 46 54" fill="none" xmlns="http://www.w3.org/2000/svg">
<path d="M22.586 48.04C24.1452 48.04 25.4092 46.8504 25.4092 45.3829C25.4092 43.9154 24.1452 42.7257 22.586 42.7257C21.0267 42.7257 19.7627 43.9154 19.7627 45.3829C19.7627 46.8504 21.0267 48.04 22.586 48.04Z" fill="#478AFF"/>
<path fill-rule="evenodd" clip-rule="evenodd" d="M0.000244141 10.84C0.000244141 4.97 5.05623 0.211426 11.2931 0.211426H33.8788C40.1157 0.211426 45.1717 4.97 45.1717 10.84V42.7257C45.1717 48.5957 40.1157 53.3543 33.8788 53.3543H11.2931C5.05623 53.3543 0.000244141 48.5957 0.000244141 42.7257V10.84ZM4.23507 10.84C4.23507 7.17125 7.39506 4.19714 11.2931 4.19714H33.8788C37.7769 4.19714 40.9369 7.17125 40.9369 10.84V42.7257C40.9369 46.3945 37.7769 49.3686 33.8788 49.3686H11.2931C7.39506 49.3686 4.23507 46.3945 4.23507 42.7257V10.84Z" fill="#478AFF"/>
</svg>
