<svg width="30" height="30" viewBox="0 0 30 30" fill="none" xmlns="http://www.w3.org/2000/svg">
<path fill-rule="evenodd" clip-rule="evenodd" d="M17.019 0.138334C15.9134 -0.0461113 14.7849 -0.0461113 13.6793 0.138334L11.5025 0.501471C10.9959 0.585984 10.4832 0.628457 9.96962 0.628457H8.73637C7.91939 0.628457 7.12068 0.870516 6.44091 1.32413L3.80434 3.08352C2.82474 3.73721 2.16969 4.7776 2.00319 5.94421L0.882394 13.7973C0.702569 15.0573 1.26154 16.3086 2.31953 17.0146C2.7534 17.3042 3.1212 17.7216 3.18208 18.2396L3.82168 23.6813C4.24517 27.2845 7.29596 30 10.9205 30H20.5301C24.1547 30 27.2055 27.2845 27.629 23.6813L27.9868 20.6365C28.2592 18.3191 30.1455 16.1073 29.8158 13.7973L28.695 5.9442C28.5285 4.7776 27.8735 3.73721 26.8939 3.08352L24.2573 1.32413C23.5776 0.870515 22.7789 0.628457 21.9619 0.628457H20.7286C20.215 0.628457 19.7023 0.585983 19.1957 0.501471L17.019 0.138334ZM7.69298 3.20402C8.00197 2.99783 8.36501 2.88781 8.73637 2.88781C9.17175 2.88781 9.50863 3.26937 9.45467 3.70139L8.67079 9.97844C8.4248 11.9482 7.26603 13.6874 5.54288 14.673L4.6694 15.1726C4.32583 15.3691 3.90084 15.3545 3.5716 15.1348C3.23686 14.9114 3.06001 14.5155 3.1169 14.1168L4.2377 6.26373C4.31338 5.73345 4.61113 5.26055 5.0564 4.96342L7.69298 3.20402ZM5.78928 17.1343L7.96655 15.8889C8.84041 15.3891 9.90635 15.3595 10.8066 15.81C13.6662 17.2412 17.0321 17.2412 19.8916 15.81C20.7919 15.3595 21.8578 15.3891 22.7317 15.8889L24.909 17.1343C25.5097 17.4779 26.014 18.0845 25.9332 18.7719L25.3872 23.4174C25.0975 25.8827 23.0101 27.7407 20.5301 27.7407C19.9542 27.7407 19.4873 27.2738 19.4873 26.6978V24.3516C19.4873 22.064 17.6346 20.2095 15.3491 20.2095C13.0637 20.2095 11.2109 22.064 11.2109 24.3516V27.4502C11.2109 27.6106 11.0809 27.7407 10.9205 27.7407C8.44055 27.7407 6.35317 25.8827 6.06341 23.4174L5.40656 17.8288C5.37302 17.5435 5.53992 17.2769 5.78928 17.1343ZM26.0288 15.1726L25.1554 14.673C23.4322 13.6874 22.2734 11.9482 22.0275 9.97844L21.2436 3.70139C21.1896 3.26937 21.5265 2.88781 21.9619 2.88781C22.3332 2.88781 22.6963 2.99783 23.0053 3.20402L25.6418 4.96342C26.0871 5.26054 26.3849 5.73345 26.4605 6.26372L27.5813 14.1168C27.6382 14.5155 27.4614 14.9114 27.1266 15.1348C26.7974 15.3545 26.3724 15.3691 26.0288 15.1726ZM16.6479 2.36694C17.9532 2.5847 18.9604 3.63413 19.1244 4.94728L19.9738 11.7489C20.079 12.5916 19.6416 13.4091 18.8822 13.7892C16.6581 14.9023 14.0402 14.9023 11.8161 13.7892C11.0566 13.4091 10.6192 12.5916 10.7245 11.7489L11.5738 4.94728C11.7378 3.63413 12.745 2.5847 14.0503 2.36694C14.9103 2.22349 15.788 2.22349 16.6479 2.36694ZM15.3491 22.4688C16.388 22.4688 17.2301 23.3118 17.2301 24.3516V25.8597C17.2301 26.8985 16.388 27.7407 15.3491 27.7407C14.3103 27.7407 13.4681 26.8985 13.4681 25.8597V24.3516C13.4681 23.3118 14.3103 22.4688 15.3491 22.4688Z" fill="#478AFF"/>
</svg>
