<svg width="23" height="29" viewBox="0 0 23 29" fill="none" xmlns="http://www.w3.org/2000/svg">
<path d="M16.8387 9.2126C16.6981 9.90487 16.0274 10.3512 15.3406 10.2096C14.4677 10.0295 13.0638 10.0194 11.5639 10.1091C10.0982 10.1967 8.66686 10.3706 7.80747 10.5025C7.1144 10.6089 6.46698 10.1289 6.36142 9.43032C6.25587 8.73176 6.73214 8.07922 7.42521 7.97283C8.35147 7.83064 9.86076 7.64748 11.4136 7.55467C12.9323 7.4639 14.6249 7.45005 15.8495 7.70263C16.5364 7.84429 16.9792 8.52033 16.8387 9.2126Z" fill="#478AFF"/>
<path d="M15.3406 15.3273C16.0274 15.469 16.6981 15.0226 16.8387 14.3304C16.9792 13.6381 16.5364 12.9621 15.8495 12.8204C14.6249 12.5678 12.9323 12.5817 11.4136 12.6724C9.86076 12.7653 8.35147 12.9484 7.42521 13.0906C6.73214 13.197 6.25587 13.8495 6.36142 14.5481C6.46698 15.2467 7.1144 15.7267 7.80747 15.6203C8.66686 15.4884 10.0982 15.3144 11.5639 15.2268C13.0638 15.1372 14.4677 15.1473 15.3406 15.3273Z" fill="#478AFF"/>
<path fill-rule="evenodd" clip-rule="evenodd" d="M22.529 21.7468L22.5206 21.7566C22.5119 21.7668 22.4976 21.7836 22.4784 21.8065C22.4401 21.8525 22.3829 21.9224 22.3132 22.0118C22.1727 22.192 21.9866 22.4445 21.8027 22.7343C21.3929 23.3801 21.1565 23.9616 21.1565 24.3094C21.1565 24.6572 21.3929 25.2387 21.8027 25.8845C21.9866 26.1743 22.1727 26.4268 22.3132 26.607C22.3829 26.6964 22.4401 26.7663 22.4784 26.8123C22.488 26.8237 22.4963 26.8336 22.5033 26.8419C22.5104 26.8503 22.5162 26.8571 22.5206 26.8622L22.529 26.872C22.8605 27.2487 22.9422 27.7866 22.7374 28.2458C22.5325 28.7052 22.0793 29.0007 21.5796 29.0007H4.65443C2.08386 29.0007 0 26.9003 0 24.3094V4.6873C0 2.09443 2.0858 0 4.65443 0H18.1946C20.7652 0 22.849 2.10036 22.849 4.69129V20.8976C22.849 21.2104 22.735 21.5128 22.529 21.7468ZM4.65443 2.55888C3.48406 2.55888 2.53878 3.51156 2.53878 4.6873V19.6181H20.3102V4.69129C20.3102 3.51359 19.363 2.55888 18.1946 2.55888H4.65443ZM19.1969 26.4418C18.8877 25.8211 18.6177 25.0691 18.6177 24.3094C18.6177 23.5497 18.8877 22.7978 19.1969 22.177H2.53878V24.3094C2.53878 25.4871 3.48599 26.4418 4.65443 26.4418H19.1969Z" fill="#478AFF"/>
</svg>
