<svg width="74" height="51" viewBox="0 0 74 51" fill="none" xmlns="http://www.w3.org/2000/svg">
<path fill-rule="evenodd" clip-rule="evenodd" d="M17.575 0.0527344C7.8686 0.0527344 0 7.92921 0 17.6453V32.4601C0 42.1763 7.8686 50.0527 17.575 50.0527H45.325C52.0171 50.0527 57.7329 45.8682 60.0034 39.9705L62.9465 42.9165C67.0255 46.9996 74 44.1078 74 38.3334V11.772C74 5.99767 67.0255 3.10583 62.9465 7.18894L60.0034 10.135C57.7329 4.23728 52.0171 0.0527344 45.325 0.0527344H17.575ZM66.8709 38.9882L61.05 33.1614V16.9441L66.8709 11.1173C67.4536 10.534 68.45 10.9471 68.45 11.772V38.3334C68.45 39.1583 67.4536 39.5715 66.8709 38.9882ZM5.55 17.6453C5.55 10.9975 10.9338 5.60829 17.575 5.60829H45.325C50.9445 5.60829 55.5 10.1684 55.5 15.7935V34.312C55.5 39.9371 50.9445 44.4972 45.325 44.4972H17.575C10.9338 44.4972 5.55 39.108 5.55 32.4601V17.6453Z" fill="#212121"/>
</svg>
