<svg width="34" height="29" viewBox="0 0 34 29" fill="none" xmlns="http://www.w3.org/2000/svg">
<path d="M23.9491 23.6901C24.6326 23.6901 25.1866 23.1415 25.1866 22.4648C25.1866 21.788 24.6326 21.2394 23.9491 21.2394C23.2657 21.2394 22.7116 21.788 22.7116 22.4648C22.7116 23.1415 23.2657 23.6901 23.9491 23.6901Z" fill="#478AFF"/>
<path fill-rule="evenodd" clip-rule="evenodd" d="M27.2491 2.4507H7.44912C5.17095 2.4507 3.32412 4.2794 3.32412 6.53521V19.6056C3.32412 21.8614 5.17095 23.6901 7.44912 23.6901H12.0159C13.2152 23.6901 14.0491 22.4388 14.0491 21.2394V9.80282C14.0491 6.19352 17.004 3.26761 20.6491 3.26761H27.2491C30.8942 3.26761 33.8491 6.19352 33.8491 9.80282V21.2394C33.8491 24.8487 30.8942 27.7746 27.2491 27.7746H23.821C22.7527 27.7746 21.7175 29 20.6491 29H14.0491C13.3657 29 12.8116 28.4514 12.8116 27.7746C12.8116 27.0979 13.3657 26.5493 14.0491 26.5493H16.211C16.3945 26.5493 16.4755 26.3056 16.3361 26.1863C16.295 26.1511 16.2412 26.1354 16.1872 26.1386C16.1622 26.1401 16.137 26.1408 16.1116 26.1408H7.44912C3.80404 26.1408 0.849121 23.2149 0.849121 19.6056V6.53521C0.849121 2.92591 3.80404 0 7.44912 0H27.2491C28.7159 0 30.071 0.473794 31.1667 1.27525C32.1379 1.98569 31.4554 3.26761 30.2479 3.26761C29.9082 3.26761 29.5825 3.14979 29.2873 2.98334C28.6861 2.64435 27.9905 2.4507 27.2491 2.4507ZM27.2491 5.71831H20.6491C18.3709 5.71831 16.5241 7.54701 16.5241 9.80282V21.2394C16.5241 23.4952 18.3709 25.3239 20.6491 25.3239H27.2491C29.5273 25.3239 31.3741 23.4952 31.3741 21.2394V9.80282C31.3741 7.54701 29.5273 5.71831 27.2491 5.71831Z" fill="#478AFF"/>
</svg>
