<svg width="35" height="29" viewBox="0 0 35 29" fill="none" xmlns="http://www.w3.org/2000/svg">
<path d="M20.7861 7.36617C20.6422 6.78876 20.1206 6.38716 19.5275 6.39724C18.9345 6.40733 18.4267 6.82643 18.3024 7.4084L17.6117 10.6428C17.395 11.6579 15.9677 11.7151 15.6704 10.7206C15.5201 10.2182 15.0795 9.85867 14.5588 9.81356C14.038 9.76846 13.5425 10.0469 13.3087 10.5161L13.126 10.8827C12.4123 12.3152 10.9496 13.2206 9.34912 13.2206C8.64496 13.2206 8.07412 13.7934 8.07412 14.5C8.07412 15.2066 8.64496 15.7794 9.34912 15.7794H12.7491C13.2321 15.7794 13.6735 15.5056 13.8895 15.0722C13.9835 14.8836 14.2598 14.9074 14.3201 15.1092L15.7779 19.9853C15.9451 20.5447 16.4687 20.9195 17.0503 20.896C17.6319 20.8726 18.1239 20.4568 18.2458 19.8857L19.3272 14.8219C19.405 14.4573 19.9221 14.4486 20.0122 14.8103C20.1541 15.3799 20.6641 15.7794 21.2491 15.7794H26.3491C27.0533 15.7794 27.6241 15.2066 27.6241 14.5C27.6241 13.7934 27.0533 13.2206 26.3491 13.2206C23.9373 13.2206 21.8354 11.5781 21.2524 9.23782L20.7861 7.36617Z" fill="#478AFF"/>
<path fill-rule="evenodd" clip-rule="evenodd" d="M16.3331 28.587C17.2801 29.1377 18.4182 29.1377 19.3651 28.587C23.1563 26.3821 32.8641 20.1319 34.5235 13.0807C36.0219 6.71361 32.2191 0.0980321 25.7794 0.00296119C25.6465 0.000998698 25.5116 0 25.3747 0C22.7824 0 20.468 1.29932 19.1112 2.25994C18.37 2.78475 17.3283 2.78475 16.587 2.25994C15.2302 1.29932 12.9159 0 10.3235 0C10.1866 0 10.0517 0.000998699 9.91881 0.00296119C3.47916 0.0980321 -0.323681 6.71361 1.17472 13.0807C2.83412 20.1319 12.5419 26.3821 16.3331 28.587ZM32.0418 12.4926C31.4036 15.2042 29.0846 18.0831 26.0679 20.7225C23.1334 23.2901 19.9144 25.31 18.0865 26.3731C17.9304 26.4639 17.7679 26.4639 17.6118 26.3731C15.7839 25.31 12.5649 23.2901 9.63033 20.7225C6.61363 18.0831 4.2946 15.2042 3.65645 12.4926C2.41209 7.20497 5.63284 2.62534 9.95632 2.56151C10.0766 2.55973 10.199 2.55882 10.3235 2.55882C12.1275 2.55882 13.9101 3.49633 15.117 4.35074C16.7396 5.49958 18.9586 5.49958 20.5813 4.35074C21.7881 3.49633 23.5707 2.55882 25.3747 2.55882C25.4993 2.55882 25.6216 2.55973 25.7419 2.56151C30.0654 2.62534 33.2861 7.20497 32.0418 12.4926Z" fill="#478AFF"/>
</svg>
