<svg width="68" height="51" viewBox="0 0 68 51" fill="none" xmlns="http://www.w3.org/2000/svg">
<path fill-rule="evenodd" clip-rule="evenodd" d="M57.2824 0.978302C55.6334 0.601864 53.9019 0.953888 52.5319 1.94408L17.8215 27.0316C17.613 27.1823 17.3466 27.229 17.0991 27.1583L9.28497 24.9262C6.69592 24.1867 3.93479 25.3008 2.58828 27.6283L1.07378 30.2462C-0.546656 33.0472 0.414981 36.6288 3.22166 38.246L16.8326 46.0884C18.6558 47.1389 20.9032 47.1343 22.722 46.0762L39.0857 36.5565C39.4817 36.3261 39.9897 36.4558 40.2261 36.8477L46.9504 47.9943C48.7711 51.0126 52.8308 51.7548 55.6055 49.5769L57.3827 48.1819C59.0911 46.8409 59.9169 44.6672 59.5287 42.5329L56.1874 24.162C56.1351 23.8744 56.237 23.5804 56.4562 23.3865L64.7749 16.0276C65.8141 15.1083 66.493 13.8509 66.6907 12.479L67.2262 8.76377C67.6612 5.7465 65.704 2.90084 62.7264 2.2211L57.2824 0.978302ZM55.4821 6.00955C55.6779 5.86809 55.9252 5.8178 56.1608 5.87158L61.6048 7.11437C62.0302 7.21148 62.3098 7.618 62.2477 8.04904L61.7121 11.7643C61.6839 11.9603 61.5869 12.1399 61.4384 12.2712L53.1198 19.6301C51.5855 20.9873 50.8723 23.0452 51.2385 25.0584L54.5797 43.4294C54.6352 43.7343 54.5172 44.0448 54.2732 44.2364L52.496 45.6314C52.0996 45.9425 51.5196 45.8365 51.2595 45.4053L44.5353 34.2587C42.8804 31.5154 39.3246 30.6072 36.5526 32.2198L20.1889 41.7395C19.9291 41.8907 19.608 41.8914 19.3476 41.7413L5.73657 33.8989C5.33562 33.6678 5.19824 33.1562 5.42973 32.756L6.94423 30.1381C7.13659 29.8056 7.53103 29.6465 7.9009 29.7521L15.715 31.9842C17.4477 32.4791 19.3122 32.152 20.7718 31.097L55.4821 6.00955Z" fill="#478AFF"/>
</svg>
