<svg width="47" height="50" viewBox="0 0 47 50" fill="none" xmlns="http://www.w3.org/2000/svg">
<path d="M14.3616 31.8184C16.5247 31.8184 18.2783 30.074 18.2783 27.9223C18.2783 25.7706 16.5247 24.0262 14.3616 24.0262C12.1985 24.0262 10.4449 25.7706 10.4449 27.9223C10.4449 30.074 12.1985 31.8184 14.3616 31.8184Z" fill="#478AFF"/>
<path d="M36.556 27.9223C36.556 30.074 34.8025 31.8184 32.6394 31.8184C30.4763 31.8184 28.7227 30.074 28.7227 27.9223C28.7227 25.7706 30.4763 24.0262 32.6394 24.0262C34.8025 24.0262 36.556 25.7706 36.556 27.9223Z" fill="#478AFF"/>
<path d="M16.5267 36.1419C17.0104 35.1796 18.1867 34.7896 19.1541 35.2708L19.7054 35.545C22.0945 36.7332 24.9065 36.7332 27.2956 35.545L27.8469 35.2708C28.8143 34.7896 29.9906 35.1796 30.4743 36.1419C30.958 37.1042 30.5659 38.2744 29.5985 38.7555L29.0472 39.0297C25.5555 40.7664 21.4455 40.7664 17.9538 39.0297L17.4025 38.7555C16.4351 38.2744 16.043 37.1042 16.5267 36.1419Z" fill="#478AFF"/>
<path fill-rule="evenodd" clip-rule="evenodd" d="M33.1521 2.67203C33.5538 1.67311 33.0653 0.539415 32.0611 0.139848C31.0569 -0.25972 29.9172 0.22615 29.5156 1.22507L27.8489 5.36967C27.8403 5.39129 27.8312 5.40149 27.8238 5.40812C27.8145 5.41651 27.8006 5.42514 27.7825 5.43073C27.7644 5.43631 27.748 5.43705 27.7356 5.4354C27.7257 5.43409 27.7124 5.43078 27.693 5.41786C25.7823 4.1508 23.1948 4.72959 22.0134 6.6883L19.3889 11.0394H15.6672C10.8007 11.0394 8.3674 11.0394 6.44802 11.8302C3.88883 12.8847 1.85557 14.9073 0.795524 17.453C0.000488281 19.3623 0.000488281 21.7827 0.000488281 26.6236C0.000488281 33.885 0.000488281 37.5156 1.19304 40.3796C2.78311 44.1982 5.83301 47.232 9.67178 48.8137C12.5509 50 16.2007 50 23.5005 50C30.8002 50 34.4501 50 37.3292 48.8137C41.168 47.232 44.2179 44.1982 45.8079 40.3796C47.0005 37.5156 47.0005 33.885 47.0005 26.6236C47.0005 21.7827 47.0005 19.3623 46.2055 17.453C45.1454 14.9073 43.1121 12.8847 40.553 11.8302C38.6336 11.0394 36.2003 11.0394 31.3338 11.0394H23.9565L25.3719 8.69281C25.4028 8.64159 25.4704 8.62645 25.5204 8.65958C27.6459 10.0691 30.5367 9.176 31.4855 6.81664L33.1521 2.67203ZM4.00745 21.2042C3.91928 22.4897 3.91716 24.1499 3.91716 26.6236C3.91716 30.3076 3.91928 32.8755 4.05714 34.8854C4.1926 36.8604 4.44592 38.0105 4.81157 38.8886C6.00412 41.7526 8.29155 44.028 11.1706 45.2142C12.0534 45.578 13.2096 45.8299 15.195 45.9647C17.2156 46.1018 19.797 46.1039 23.5005 46.1039C27.204 46.1039 29.7854 46.1018 31.806 45.9647C33.7914 45.8299 34.9476 45.578 35.8304 45.2142C38.7094 44.028 40.9969 41.7526 42.1894 38.8886C42.5551 38.0105 42.8084 36.8604 42.9438 34.8854C43.0817 32.8755 43.0838 30.3076 43.0838 26.6236C43.0838 24.1499 43.0817 22.4897 42.9935 21.2042C42.9078 19.9536 42.7538 19.3447 42.5869 18.9439C41.9244 17.3529 40.6536 16.0888 39.0541 15.4297C38.6512 15.2637 38.0391 15.1106 36.7819 15.0252C35.4896 14.9375 33.8207 14.9354 31.3338 14.9354H15.6672C13.1803 14.9354 11.5113 14.9375 10.219 15.0252C8.9619 15.1106 8.34977 15.2637 7.94686 15.4297C6.34737 16.0888 5.07658 17.3529 4.41405 18.9439C4.24716 19.3447 4.09322 19.9536 4.00745 21.2042Z" fill="#478AFF"/>
</svg>
