<svg width="64" height="51" viewBox="0 0 64 51" fill="none" xmlns="http://www.w3.org/2000/svg">
<path d="M43.8686 4.08435C44.3935 2.85624 43.8261 1.43399 42.6014 0.907658C41.3766 0.381327 39.9582 0.950228 39.4333 2.17833L20.1314 47.3385C19.6065 48.5666 20.1739 49.9889 21.3986 50.5152C22.6234 51.0415 24.0418 50.4726 24.5667 49.2445L43.8686 4.08435Z" fill="#478AFF"/>
<path d="M21.1396 11.4665C21.8788 12.5783 21.5792 14.0803 20.4704 14.8215L5.1836 25.0404C4.70609 25.3596 4.70609 26.0632 5.1836 26.3824L20.4704 36.6014C21.5792 37.3425 21.8788 38.8446 21.1396 39.9563C20.4005 41.0681 18.9025 41.3685 17.7937 40.6273L2.50691 30.4084C-0.835635 28.1739 -0.835638 23.2489 2.50691 21.0145L17.7937 10.7955C18.9025 10.0544 20.4005 10.3548 21.1396 11.4665Z" fill="#478AFF"/>
<path d="M42.8604 11.4665C42.1213 12.5783 42.4208 14.0803 43.5296 14.8215L58.8164 25.0404C59.2939 25.3596 59.2939 26.0632 58.8164 26.3824L43.5296 36.6014C42.4208 37.3425 42.1213 38.8446 42.8604 39.9563C43.5995 41.0681 45.0975 41.3685 46.2063 40.6273L61.4931 30.4084C64.8356 28.1739 64.8356 23.2489 61.4931 21.0145L46.2063 10.7955C45.0975 10.0544 43.5995 10.3548 42.8604 11.4665Z" fill="#478AFF"/>
</svg>
