<svg width="84" height="71" viewBox="0 0 84 71" fill="none" xmlns="http://www.w3.org/2000/svg">
<path fill-rule="evenodd" clip-rule="evenodd" d="M63.3045 1.89669C62.6165 2.32489 61.6496 2.32489 60.9615 1.89669C59.7021 1.11289 57.5539 0.0527344 55.1476 0.0527344C55.0205 0.0527344 54.8953 0.0535492 54.7719 0.0551505C48.7945 0.132722 45.2646 5.53057 46.6554 10.7256C48.1957 16.4789 57.2067 21.5787 60.7258 23.3777C61.6048 23.827 62.6612 23.827 63.5402 23.3777C67.0593 21.5787 76.0703 16.4789 77.6106 10.7256C79.0015 5.53057 75.4716 0.132722 69.4941 0.0551505C69.3707 0.0535492 69.2455 0.0527344 69.1185 0.0527344C66.7122 0.0527344 64.5639 1.11289 63.3045 1.89669ZM71.8944 9.19626C71.6661 10.0487 70.453 11.7358 67.7092 13.846C65.8054 15.3102 63.7259 16.5564 62.133 17.4291C60.5401 16.5564 58.4606 15.3102 56.5569 13.846C53.8131 11.7358 52.5999 10.0487 52.3717 9.19626C52.1368 8.31885 52.3326 7.50753 52.7424 6.94217C53.1086 6.43694 53.7424 5.9845 54.8487 5.97014C54.9462 5.96888 55.0458 5.96823 55.1476 5.96823C55.4929 5.96823 55.9344 6.04754 56.4564 6.23795C56.9742 6.4268 57.4551 6.68261 57.8342 6.91854C60.4368 8.53827 63.8293 8.53827 66.4319 6.91854C66.811 6.68261 67.2919 6.4268 67.8097 6.23795C68.3317 6.04754 68.7731 5.96823 69.1185 5.96823C69.2202 5.96823 69.3198 5.96888 69.4173 5.97014C70.5236 5.9845 71.1575 6.43694 71.5237 6.94217C71.9335 7.50753 72.1293 8.31885 71.8944 9.19626Z" fill="#478AFF"/>
<path fill-rule="evenodd" clip-rule="evenodd" d="M6.1864 16.8133C2.2423 16.8133 0 20.4858 0 23.7147V63.1513C0 66.3802 2.2423 70.0527 6.1864 70.0527H17.4833C21.4274 70.0527 23.6697 66.3802 23.6697 63.1513V61.9958C23.7835 61.9554 23.896 61.9077 24.0067 61.8523C26.0406 60.8357 27.1211 60.701 28.0805 60.7946C29.1239 60.8963 30.1777 61.2588 32.1125 61.9243C32.4771 62.0497 32.873 62.1859 33.3059 62.3331C40.5011 64.7793 50.2989 65.6062 59.4946 63.5452C68.727 61.4759 77.6943 56.3987 82.5316 46.7286C83.3119 45.1688 83.9163 43.607 83.9919 42.1641C84.0323 41.3937 83.9311 40.5018 83.4834 39.6443C83.0166 38.7503 82.2984 38.1346 81.5188 37.7554C80.1497 37.0895 78.5677 37.1417 77.3914 37.2654C76.0911 37.4021 74.5942 37.7181 73.031 38.093C71.8827 38.3684 70.6565 38.6844 69.3634 39.0175C63.4162 40.55 56.0526 42.4473 48.3254 42.448C48.3296 42.448 48.3314 42.4483 48.3254 42.448C48.3052 42.447 48.2238 42.4429 48.074 42.4281C47.8972 42.4106 47.6674 42.3825 47.3972 42.3423C46.8548 42.2614 46.1961 42.1382 45.5323 41.9735C45.3659 41.9322 45.2029 41.8892 45.0445 41.8447C46.8563 40.9372 49.971 39.7769 55.0216 38.4L55.3644 38.3062C58.3069 37.4992 61.1168 35.3296 61.1109 32.1173C61.1078 30.4492 60.2733 28.9983 58.9613 28.0596C57.7105 27.1647 56.139 26.7939 54.5081 26.7823C52.1134 26.7654 49.4207 27.1032 47.0243 27.4039C46.608 27.4562 46.2003 27.5073 45.805 27.5553C42.903 27.9072 40.7399 28.0721 39.3393 27.7987C38.9856 27.7296 38.5646 27.5508 37.8515 27.1604C37.7471 27.1033 37.63 27.0376 37.5024 26.966C36.903 26.6298 36.0706 26.163 35.2252 25.8339C31.7271 24.4723 29.0301 23.8584 26.5795 24.2914C25.484 24.485 24.5254 24.8815 23.6697 25.3586V23.7147C23.6697 20.4858 21.4274 16.8133 17.4833 16.8133H6.1864ZM28.6549 54.907C26.9749 54.7432 25.3877 54.9628 23.6697 55.567V32.4187C23.9457 32.3211 24.2118 32.1805 24.4584 31.9957C26.2551 30.649 26.8326 30.2539 27.6094 30.1166C28.3826 29.98 29.7916 30.067 33.0781 31.3463C33.5023 31.5114 33.8785 31.721 34.4373 32.0323C34.6084 32.1276 34.7973 32.2328 35.0093 32.3489C35.7957 32.7794 36.8952 33.3488 38.2053 33.6045C40.6891 34.0894 43.8166 33.7553 46.5176 33.4277C46.9649 33.3735 47.4067 33.3184 47.8425 33.2641C49.8263 33.0168 51.6862 32.7849 53.376 32.7171C47.0167 34.4552 42.9622 36.0307 40.6449 37.5503C39.5237 38.2855 38.341 39.3032 37.8345 40.7445C37.206 42.5329 37.8764 44.0975 38.7826 45.0854C39.5692 45.9429 40.6041 46.4878 41.4237 46.8395C42.3005 47.2157 43.2466 47.5013 44.1066 47.7147C45.76 48.1251 47.4937 48.3636 48.326 48.3635C56.8879 48.3627 65.1418 46.2259 71.0733 44.6904C72.2893 44.3756 73.4082 44.0859 74.4116 43.8452C75.7376 43.5272 76.8087 43.3051 77.6553 43.1912C77.5457 43.4471 77.409 43.743 77.239 44.0828C73.4276 51.7021 66.2729 55.9636 58.2 57.773C50.0902 59.5907 41.3991 58.8364 35.2113 56.7326C34.8694 56.6164 34.5293 56.4982 34.191 56.3806C32.2966 55.7223 30.4558 55.0826 28.6549 54.907ZM55.2535 31.8227C55.2535 31.8227 55.2524 31.8251 55.2492 31.8299L55.2535 31.8227ZM5.91743 23.7147C5.91743 23.2673 6.06779 22.9533 6.194 22.7991C6.22205 22.7648 6.24429 22.7426 6.26015 22.7288H17.4096C17.4254 22.7426 17.4477 22.7648 17.4757 22.7991C17.6019 22.9533 17.7523 23.2673 17.7523 23.7147V63.1513C17.7523 63.5987 17.6019 63.9128 17.4757 64.067C17.4477 64.1012 17.4254 64.1234 17.4096 64.1372H6.26015C6.24429 64.1234 6.22205 64.1012 6.194 64.067C6.06779 63.9127 5.91743 63.5987 5.91743 63.1513V23.7147Z" fill="#363538"/>
</svg>
