<svg width="70" height="71" viewBox="0 0 70 71" fill="none" xmlns="http://www.w3.org/2000/svg">
<path d="M52.6062 26.4089C53.6313 25.3838 53.6313 23.7217 52.6062 22.6966C51.581 21.6715 49.919 21.6715 48.8938 22.6966L28 43.5904L19.3562 34.9466C18.331 33.9215 16.669 33.9215 15.6438 34.9466C14.6187 35.9717 14.6187 37.6338 15.6438 38.6589L26.1438 49.1589C27.169 50.184 28.831 50.184 29.8562 49.1589L52.6062 26.4089Z" fill="#478AFF"/>
<path fill-rule="evenodd" clip-rule="evenodd" d="M2.81347 59.5527C0 54.6797 0 48.1374 0 35.0527C0 21.9681 0 15.4258 2.81347 10.5527C4.6566 7.36033 7.3076 4.70934 10.5 2.8662C15.3731 0.0527344 21.9154 0.0527344 35 0.0527344C48.0846 0.0527344 54.6269 0.0527344 59.5 2.8662C62.6924 4.70934 65.3434 7.36033 67.1865 10.5527C70 15.4258 70 21.9681 70 35.0527C70 48.1374 70 54.6797 67.1865 59.5527C65.3434 62.7451 62.6924 65.3961 59.5 67.2393C54.6269 70.0527 48.0846 70.0527 35 70.0527C21.9154 70.0527 15.3731 70.0527 10.5 67.2393C7.3076 65.3961 4.6566 62.7451 2.81347 59.5527ZM64.4197 20.1973C64.1011 16.6811 63.5084 14.682 62.6399 13.1777C61.2576 10.7834 59.2693 8.79518 56.875 7.41283C55.3707 6.54432 53.3716 5.95167 49.8555 5.63299C46.2671 5.30776 41.6389 5.30273 35 5.30273C28.3611 5.30273 23.7329 5.30776 20.1446 5.63299C16.6284 5.95167 14.6293 6.54432 13.125 7.41283C10.7307 8.79518 8.74245 10.7834 7.3601 13.1777C6.49159 14.682 5.89893 16.6811 5.58025 20.1973C5.25503 23.7856 5.25 28.4138 5.25 35.0527C5.25 41.6917 5.25503 46.3199 5.58025 49.9082C5.89893 53.4243 6.49159 55.4234 7.3601 56.9277C8.74245 59.322 10.7307 61.3103 13.125 62.6926C14.6293 63.5611 16.6284 64.1538 20.1445 64.4725C23.7329 64.7977 28.3611 64.8027 35 64.8027C41.6389 64.8027 46.2671 64.7977 49.8555 64.4725C53.3716 64.1538 55.3707 63.5612 56.875 62.6926C59.2693 61.3103 61.2575 59.322 62.6399 56.9277C63.5084 55.4234 64.1011 53.4243 64.4197 49.9082C64.745 46.3199 64.75 41.6917 64.75 35.0527C64.75 28.4138 64.745 23.7856 64.4197 20.1973Z" fill="#363538"/>
</svg>
