<svg width="32" height="29" viewBox="0 0 32 29" fill="none" xmlns="http://www.w3.org/2000/svg">
<path d="M10.4249 6.32051C10.4249 5.7045 10.9196 5.20513 11.5298 5.20513H13.003C13.6132 5.20513 14.1079 5.7045 14.1079 6.32051C14.1079 6.93652 13.6132 7.4359 13.003 7.4359H11.5298C10.9196 7.4359 10.4249 6.93652 10.4249 6.32051Z" fill="#478AFF"/>
<path d="M17.4226 5.20513C16.8124 5.20513 16.3177 5.7045 16.3177 6.32051C16.3177 6.93652 16.8124 7.4359 17.4226 7.4359H18.8958C19.506 7.4359 20.0007 6.93652 20.0007 6.32051C20.0007 5.7045 19.506 5.20513 18.8958 5.20513H17.4226Z" fill="#478AFF"/>
<path d="M10.4249 10.7821C10.4249 10.166 10.9196 9.66667 11.5298 9.66667H13.003C13.6132 9.66667 14.1079 10.166 14.1079 10.7821C14.1079 11.3981 13.6132 11.8974 13.003 11.8974H11.5298C10.9196 11.8974 10.4249 11.3981 10.4249 10.7821Z" fill="#478AFF"/>
<path d="M11.5298 14.1282C10.9196 14.1282 10.4249 14.6276 10.4249 15.2436C10.4249 15.8596 10.9196 16.359 11.5298 16.359H13.003C13.6132 16.359 14.1079 15.8596 14.1079 15.2436C14.1079 14.6276 13.6132 14.1282 13.003 14.1282H11.5298Z" fill="#478AFF"/>
<path d="M10.4249 19.7051C10.4249 19.0891 10.9196 18.5897 11.5298 18.5897H13.003C13.6132 18.5897 14.1079 19.0891 14.1079 19.7051C14.1079 20.3211 13.6132 20.8205 13.003 20.8205H11.5298C10.9196 20.8205 10.4249 20.3211 10.4249 19.7051Z" fill="#478AFF"/>
<path d="M17.4226 9.66667C16.8124 9.66667 16.3177 10.166 16.3177 10.7821C16.3177 11.3981 16.8124 11.8974 17.4226 11.8974H18.8958C19.506 11.8974 20.0007 11.3981 20.0007 10.7821C20.0007 10.166 19.506 9.66667 18.8958 9.66667H17.4226Z" fill="#478AFF"/>
<path d="M16.3177 15.2436C16.3177 14.6276 16.8124 14.1282 17.4226 14.1282H18.8958C19.506 14.1282 20.0007 14.6276 20.0007 15.2436C20.0007 15.8596 19.506 16.359 18.8958 16.359H17.4226C16.8124 16.359 16.3177 15.8596 16.3177 15.2436Z" fill="#478AFF"/>
<path d="M17.4226 18.5897C16.8124 18.5897 16.3177 19.0891 16.3177 19.7051C16.3177 20.3211 16.8124 20.8205 17.4226 20.8205H18.8958C19.506 20.8205 20.0007 20.3211 20.0007 19.7051C20.0007 19.0891 19.506 18.5897 18.8958 18.5897H17.4226Z" fill="#478AFF"/>
<path fill-rule="evenodd" clip-rule="evenodd" d="M6.00531 5.57692C6.00531 2.49687 8.4787 0 11.5298 0H18.8958C21.9469 0 24.4203 2.49687 24.4203 5.57692V23.4231C24.4203 26.5031 21.9469 29 18.8958 29H6.37361C3.32252 29 0.849121 26.5031 0.849121 23.4231V15.2436C0.849121 13.7483 1.43206 12.3905 2.38104 11.389C3.96868 9.71365 6.00531 7.88507 6.00531 5.57692ZM18.8958 26.7692C18.6924 26.7692 18.5275 26.6043 18.5275 26.4009V25.6538C18.5275 23.8058 17.0434 22.3077 15.2128 22.3077C13.3821 22.3077 11.8981 23.8058 11.8981 25.6538V26.4009C11.8981 26.6043 11.7332 26.7692 11.5298 26.7692C9.69914 26.7692 8.2151 25.2711 8.2151 23.4231V5.57692C8.2151 3.72889 9.69914 2.23077 11.5298 2.23077H18.8958C20.7264 2.23077 22.2105 3.72889 22.2105 5.57692V23.4231C22.2105 25.2711 20.7264 26.7692 18.8958 26.7692ZM16.3177 25.6538C16.3177 26.2641 15.823 26.7692 15.2128 26.7692C14.6026 26.7692 14.1079 26.2641 14.1079 25.6538C14.1079 25.0378 14.6026 24.5385 15.2128 24.5385C15.823 24.5385 16.3177 25.0378 16.3177 25.6538ZM6.00531 16.7806C6.00531 14.1869 3.05891 12.65 3.05891 15.2436V23.4231C3.05891 25.2711 4.54295 26.7692 6.37361 26.7692C6.67773 26.7692 6.85836 26.4171 6.71042 26.1514C6.2614 25.3449 6.00531 24.4142 6.00531 23.4231V16.7806Z" fill="#478AFF"/>
<path fill-rule="evenodd" clip-rule="evenodd" d="M29.7587 20.3658C29.6406 20.6031 29.5765 20.8641 29.5765 21.1292V27.8846C29.5765 28.5006 29.0818 29 28.4716 29C27.8614 29 27.3667 28.5006 27.3667 27.8846V21.1292C27.3667 20.8641 27.3026 20.6031 27.1845 20.3658C26.9961 19.9872 26.7415 19.4561 26.476 18.8443C25.957 17.6486 25.3498 16.041 25.1665 14.6468C24.7741 11.6626 26.0648 9.24126 26.9001 8.02201C27.6725 6.8945 29.2707 6.89451 30.0431 8.02201C30.8783 9.24126 32.1691 11.6626 31.7767 14.6468C31.5933 16.041 30.9862 17.6486 30.4672 18.8443C30.2017 19.4561 29.9471 19.9872 29.7587 20.3658ZM27.3571 14.3532C27.0644 12.1277 29.8787 12.1277 29.5861 14.3532C29.4031 15.7447 27.5401 15.7447 27.3571 14.3532Z" fill="#478AFF"/>
</svg>
