<svg width="39" height="30" viewBox="0 0 39 30" fill="none" xmlns="http://www.w3.org/2000/svg">
<path fill-rule="evenodd" clip-rule="evenodd" d="M9.82834 7.36467C8.37446 9.48137 7.71418 12.3278 8.65614 15.8008C8.85252 16.5249 8.46134 17.2783 7.75354 17.5393C5.90797 18.2198 4.83616 19.1858 4.28603 20.1382C3.73898 21.0853 3.64226 22.1268 3.93103 23.1205C4.50907 25.1097 6.74168 27.0968 10.3902 27.0967H28.152C30.954 26.8553 32.875 25.8327 34.0941 24.5429C35.3308 23.2344 35.926 21.5672 35.926 19.9152C35.926 16.6252 33.6026 13.5067 29.2622 13.5067C28.5217 13.5067 27.8982 12.9567 27.8108 12.2264C27.329 8.19948 25.6176 5.71264 23.5389 4.34113C21.4307 2.95017 18.7715 2.59184 16.2154 3.16302C13.6574 3.73461 11.3036 5.21677 9.82834 7.36467ZM36.567 13.7267C33.8636 10.6281 30.3614 7.60106 27.8149 4.37215C27.0422 3.39225 26.1465 2.57615 25.1563 1.92282C22.2844 0.0280097 18.784 -0.386776 15.5737 0.330571C12.3653 1.04753 9.34577 2.91556 7.41364 5.72853C6.5111 7.04254 5.85877 8.54457 5.53197 10.2003C4.94245 13.1873 3.27339 16.0571 1.75057 18.6935C0.790444 20.3557 0.625026 22.2134 1.12258 23.9256C2.11718 27.3483 5.65106 30 10.3902 30H28.2137C28.2538 30 28.2939 29.9984 28.3339 29.9951C31.7907 29.7119 34.4385 28.4204 36.2252 26.53C38.0027 24.6493 38.8491 22.2577 38.8491 19.9152C38.8491 17.6675 38.0613 15.4395 36.567 13.7267Z" fill="#478AFF"/>
</svg>
