<svg width="51" height="51" viewBox="0 0 51 51" fill="none" xmlns="http://www.w3.org/2000/svg">
<path d="M9.82904 7.24498C9.07247 9.10057 7.24008 10.4095 5.09976 10.4095C2.2831 10.4095 -0.000244141 8.14263 -0.000244141 5.34625C-0.000244141 2.54987 2.2831 0.282959 5.09976 0.282959C7.24008 0.282959 9.07247 1.59193 9.82904 3.44752H20.3998V0.282959H30.5998V3.44752H41.1705C41.927 1.59193 43.7594 0.282959 45.8998 0.282959C48.7164 0.282959 50.9998 2.54987 50.9998 5.34625C50.9998 8.14263 48.7164 10.4095 45.8998 10.4095C43.7594 10.4095 41.927 9.10057 41.1705 7.24498H37.9961C43.9194 11.2277 47.8123 17.9622 47.8123 25.5994V28.1311C47.8123 29.1797 46.956 30.0298 45.8998 30.0298C44.8435 30.0298 43.9873 29.1797 43.9873 28.1311V25.5994C43.9873 17.2188 38.3298 10.1501 30.5998 7.95226V10.4095H20.3998V7.95226C12.6697 10.1501 7.01226 17.2188 7.01226 25.5994V28.1311C7.01226 29.1797 6.156 30.0298 5.09976 30.0298C4.04351 30.0298 3.18726 29.1797 3.18726 28.1311V25.5994C3.18726 17.9622 7.08015 11.2277 13.0034 7.24498H9.82904Z" fill="#478AFF"/>
<path fill-rule="evenodd" clip-rule="evenodd" d="M29.131 17.2533C27.3513 14.7796 23.6482 14.7796 21.8685 17.2533L12.0859 30.8504C11.1251 32.1858 10.9865 33.939 11.7258 35.4068L17.9844 47.8339C18.7403 49.3349 20.2855 50.283 21.9757 50.283H29.0238C30.714 50.283 32.2592 49.3348 33.0151 47.8339L39.2737 35.4068C40.013 33.939 39.8744 32.1858 38.9136 30.8504L29.131 17.2533ZM27.4123 31.6197V21.3978L35.8011 33.0576C35.9384 33.2484 35.9582 33.4989 35.8526 33.7085L29.594 46.1356C29.486 46.35 29.2652 46.4855 29.0238 46.4855H21.9757C21.7343 46.4855 21.5135 46.35 21.4055 46.1356L15.147 33.7085C15.0414 33.4989 15.0611 33.2484 15.1984 33.0576L23.5873 21.3978V31.6197C21.3588 32.4017 19.7623 34.5117 19.7623 36.9918C19.7623 40.1377 22.331 42.688 25.4998 42.688C28.6685 42.688 31.2373 40.1377 31.2373 36.9918C31.2373 34.5117 29.6407 32.4017 27.4123 31.6197ZM23.5873 36.9918C23.5873 35.9432 24.4435 35.0931 25.4998 35.0931C26.556 35.0931 27.4123 35.9432 27.4123 36.9918C27.4123 38.0405 26.556 38.8906 25.4998 38.8906C24.4435 38.8906 23.5873 38.0405 23.5873 36.9918Z" fill="#478AFF"/>
</svg>
