<svg width="71" height="71" viewBox="0 0 71 71" fill="none" xmlns="http://www.w3.org/2000/svg">
<path d="M13.6839 9.79957C12.6306 12.3974 10.0797 14.2299 7.1 14.2299C3.17878 14.2299 0 11.0563 0 7.14134C0 3.22641 3.17878 0.0527344 7.1 0.0527344C10.0797 0.0527344 12.6306 1.88529 13.6839 4.48311H28.4V0.0527344H42.6V4.48311H57.3161C58.3694 1.88529 60.9203 0.0527344 63.9 0.0527344C67.8212 0.0527344 71 3.22641 71 7.14134C71 11.0563 67.8212 14.2299 63.9 14.2299C60.9203 14.2299 58.3694 12.3974 57.3161 9.79957H52.8969C61.143 15.3753 66.5625 24.8037 66.5625 35.4958V39.0401C66.5625 40.5082 65.3705 41.6983 63.9 41.6983C62.4295 41.6983 61.2375 40.5082 61.2375 39.0401V35.4958C61.2375 23.763 53.3615 13.8668 42.6 10.7898V14.2299H28.4V10.7898C17.6385 13.8668 9.7625 23.763 9.7625 35.4958V39.0401C9.7625 40.5082 8.57046 41.6983 7.1 41.6983C5.62954 41.6983 4.4375 40.5082 4.4375 39.0401V35.4958C4.4375 24.8037 9.85702 15.3753 18.1031 9.79957H13.6839Z" fill="#478AFF"/>
<path fill-rule="evenodd" clip-rule="evenodd" d="M40.5553 23.8113C38.0776 20.3481 32.9224 20.3481 30.4447 23.8113L16.8258 42.8471C15.4882 44.7167 15.2953 47.1712 16.3245 49.2262L25.0374 66.6241C26.0897 68.7254 28.2409 70.0527 30.594 70.0527H40.406C42.7591 70.0527 44.9103 68.7254 45.9626 66.6241L54.6755 49.2262C55.7047 47.1712 55.5118 44.7167 54.1742 42.8471L40.5553 23.8113ZM38.1625 43.9242V29.6135L49.8411 45.9373C50.0322 46.2044 50.0597 46.555 49.9127 46.8486L41.1998 64.2465C41.0494 64.5467 40.7421 64.7363 40.406 64.7363H30.594C30.2579 64.7363 29.9505 64.5467 29.8002 64.2465L21.0873 46.8486C20.9403 46.555 20.9678 46.2043 21.1589 45.9373L32.8375 29.6135V43.9242C29.7352 45.019 27.5125 47.9729 27.5125 51.4451C27.5125 55.8494 31.0886 59.4198 35.5 59.4198C39.9114 59.4198 43.4875 55.8494 43.4875 51.4451C43.4875 47.9729 41.2648 45.019 38.1625 43.9242ZM32.8375 51.4451C32.8375 49.977 34.0295 48.7869 35.5 48.7869C36.9705 48.7869 38.1625 49.977 38.1625 51.4451C38.1625 52.9132 36.9705 54.1034 35.5 54.1034C34.0295 54.1034 32.8375 52.9132 32.8375 51.4451Z" fill="#363538"/>
</svg>
