<svg width="41" height="41" viewBox="0 0 41 41" fill="none" xmlns="http://www.w3.org/2000/svg">
<g id="js">
<g id="js_2">
<path id="Vector" d="M40.2093 0.619049H0.123047V40.7053H40.2093V0.619049Z" fill="#F7DF1E"/>
<path id="Vector_2" d="M27.0507 31.9366C27.8582 33.255 28.9087 34.224 30.7667 34.224C32.3275 34.224 33.3245 33.444 33.3245 32.3661C33.3245 31.0744 32.3001 30.6169 30.5821 29.8655L29.6404 29.4614C26.9222 28.3034 25.1164 26.8526 25.1164 23.7857C25.1164 20.9606 27.269 18.8099 30.633 18.8099C33.028 18.8099 34.7498 19.6435 35.9906 21.8259L33.0573 23.7094C32.4115 22.5513 31.7147 22.0951 30.633 22.0951C29.5297 22.0951 28.8304 22.795 28.8304 23.7094C28.8304 24.8394 29.5303 25.2969 31.1465 25.9968L32.0882 26.4002C35.2888 27.7727 37.0958 29.1719 37.0958 32.3177C37.0958 35.7091 34.4317 37.5671 30.8538 37.5671C27.3555 37.5671 25.0954 35.9 23.9895 33.715L27.0507 31.9366ZM13.744 32.263C14.3358 33.3129 14.8741 34.2005 16.1683 34.2005C17.4059 34.2005 18.1866 33.7163 18.1866 31.8335V19.025H21.9534V31.8844C21.9534 35.7849 19.6666 37.5601 16.3286 37.5601C13.3126 37.5601 11.566 35.9993 10.6777 34.1194L13.744 32.263Z" fill="black"/>
</g>
</g>
</svg>
