<svg width="48" height="54" viewBox="0 0 48 54" fill="none" xmlns="http://www.w3.org/2000/svg">
<path fill-rule="evenodd" clip-rule="evenodd" d="M9.96429 16.4031C13.4024 15.5182 15.9429 12.3972 15.9429 8.68285C15.9429 4.28036 12.3739 0.711426 7.97143 0.711426C3.56893 0.711426 0 4.28036 0 8.68285C0 12.3972 2.54044 15.5182 5.97857 16.4031V38.1626C2.54044 39.0475 0 42.1685 0 45.8829C0 50.2854 3.56893 53.8543 7.97143 53.8543C12.3739 53.8543 15.9429 50.2854 15.9429 45.8829C15.9429 42.1685 13.4024 39.0475 9.96429 38.1626V34.4073C13.5336 27.6409 19.249 25.8613 25.3213 24.583C25.9107 24.4589 26.512 24.3383 27.1191 24.2165C29.6133 23.7163 32.2053 23.1965 34.4635 22.3362C37.2975 21.2566 39.8715 19.5564 41.5018 16.4844C45.1152 15.7265 47.8286 12.5215 47.8286 8.68285C47.8286 4.28036 44.2596 0.711426 39.8571 0.711426C35.4546 0.711426 31.8857 4.28036 31.8857 8.68285C31.8857 12.059 33.9845 14.9449 36.9485 16.107C35.9564 17.2206 34.6548 17.9982 33.0446 18.6116C31.1271 19.3421 28.9602 19.7784 26.5044 20.2729C25.8567 20.4033 25.1888 20.5378 24.5002 20.6827C19.6615 21.7014 14.2362 23.1774 9.96429 27.614V16.4031ZM11.9571 8.68285C11.9571 10.8841 10.1727 12.6686 7.97143 12.6686C5.77018 12.6686 3.98571 10.8841 3.98571 8.68285C3.98571 6.48161 5.77018 4.69714 7.97143 4.69714C10.1727 4.69714 11.9571 6.48161 11.9571 8.68285ZM43.8429 8.68285C43.8429 10.8841 42.0584 12.6686 39.8571 12.6686C37.6559 12.6686 35.8714 10.8841 35.8714 8.68285C35.8714 6.48161 37.6559 4.69714 39.8571 4.69714C42.0584 4.69714 43.8429 6.48161 43.8429 8.68285ZM7.97143 49.8686C10.1727 49.8686 11.9571 48.0841 11.9571 45.8829C11.9571 43.6816 10.1727 41.8971 7.97143 41.8971C5.77018 41.8971 3.98571 43.6816 3.98571 45.8829C3.98571 48.0841 5.77018 49.8686 7.97143 49.8686Z" fill="#5290F1"/>
</svg>
