<svg width="56" height="51" viewBox="0 0 56 51" fill="none" xmlns="http://www.w3.org/2000/svg">
<path d="M23.513 17.9959C24.4965 17.3775 24.7955 16.0741 24.1808 15.0847C23.5661 14.0952 22.2705 13.7944 21.287 14.4128L13.886 19.0664C10.8154 20.9971 10.8154 25.4962 13.886 27.4269L21.287 32.0804C22.2705 32.6988 23.5661 32.3981 24.1808 31.4086C24.7955 30.4192 24.4965 29.1157 23.513 28.4973L16.112 23.8438C15.6734 23.568 15.6734 22.9253 16.112 22.6495L23.513 17.9959Z" fill="#5290F1"/>
<path d="M31.8192 15.0847C31.2045 16.0741 31.5035 17.3775 32.487 17.9959L39.888 22.6495C40.3266 22.9253 40.3266 23.568 39.888 23.8438L32.487 28.4973C31.5035 29.1157 31.2045 30.4192 31.8192 31.4086C32.4339 32.3981 33.7295 32.6988 34.713 32.0804L42.114 27.4269C45.1846 25.4962 45.1846 20.9971 42.114 19.0664L34.713 14.4128C33.7295 13.7944 32.4339 14.0952 31.8192 15.0847Z" fill="#5290F1"/>
<path fill-rule="evenodd" clip-rule="evenodd" d="M44.8 0.711426H11.2C5.01441 0.711426 0 5.7561 0 11.979V34.5142C0 40.7372 5.01441 45.7818 11.2 45.7818H44.8C50.9856 45.7818 56 40.7372 56 34.5142V11.979C56 5.7561 50.9856 0.711426 44.8 0.711426ZM11.2 4.93678H44.8C48.666 4.93678 51.8 8.0897 51.8 11.979V34.5142C51.8 38.4036 48.666 41.5565 44.8 41.5565H11.2C7.33401 41.5565 4.2 38.4036 4.2 34.5142V11.979C4.2 8.0897 7.33401 4.93678 11.2 4.93678Z" fill="#5290F1"/>
<path d="M22.4 46.4861C21.2402 46.4861 20.3 47.432 20.3 48.5988C20.3 49.7655 21.2402 50.7114 22.4 50.7114H33.6C34.7598 50.7114 35.7 49.7655 35.7 48.5988C35.7 47.432 34.7598 46.4861 33.6 46.4861H22.4Z" fill="#5290F1"/>
</svg>
