<svg width="53" height="51" viewBox="0 0 53 51" fill="none" xmlns="http://www.w3.org/2000/svg">
<path fill-rule="evenodd" clip-rule="evenodd" d="M12.9103 0.711426C5.78012 0.711426 0 6.50849 0 13.6595V31.0115C0 37.6122 5.33526 42.9631 11.9166 42.9631C13.8156 42.9631 15.65 43.6544 17.0791 44.9085L21.5781 48.8567C24.3961 51.3297 28.6039 51.3297 31.4219 48.8567L35.9209 44.9085C37.35 43.6544 39.1844 42.9631 41.0834 42.9631C47.6647 42.9631 53 37.6122 53 31.0116V13.6595C53 6.50849 47.2199 0.711426 40.0897 0.711426H12.9103ZM4.07692 13.6595C4.07692 8.76671 8.03174 4.8003 12.9103 4.8003H40.0897C44.9683 4.8003 48.9231 8.76671 48.9231 13.6595V31.0116C48.9231 35.354 45.4131 38.8742 41.0834 38.8742C38.1969 38.8742 35.4085 39.925 33.2362 41.8313L28.7372 45.7795C27.4563 46.9036 25.5437 46.9036 24.2628 45.7795L19.7638 41.8313C17.5915 39.925 14.8031 38.8742 11.9166 38.8742C7.58688 38.8742 4.07692 35.354 4.07692 31.0115V13.6595Z" fill="#5290F1"/>
</svg>
